<svg width="104" height="67" viewBox="0 0 104 67" fill="none" xmlns="http://www.w3.org/2000/svg" xmlns:xlink="http://www.w3.org/1999/xlink">
<path d="M18.9578 12.8878C17.8124 14.1964 15.2124 15.6294 14.2725 14.8067C13.3326 13.984 14.4088 11.2172 15.5542 9.90863C16.6996 8.6001 19.3381 7.12307 20.278 7.94576C21.2179 8.76845 20.1032 11.5793 18.9578 12.8878Z" fill="url(#paint0_linear_45_1647)"/>
<path d="M16.3837 20.4097C14.9256 21.3574 12.0338 22.0293 11.3531 20.982C10.6724 19.9347 12.4605 17.5648 13.9186 16.6171C15.3767 15.6694 18.3175 14.9657 18.9982 16.013C19.6789 17.0603 17.8417 19.462 16.3837 20.4097Z" fill="url(#paint1_linear_45_1647)"/>
<path d="M15.1962 27.4502C13.8072 28.4965 10.9688 29.3668 10.2173 28.3691C9.4658 27.3714 11.0857 24.8835 12.4748 23.8372C13.8638 22.7909 16.7489 21.8854 17.5004 22.8831C18.2519 23.8809 16.5853 26.4039 15.1962 27.4502Z" fill="url(#paint2_linear_45_1647)"/>
<path d="M15.4692 34.4497C14.1835 35.6207 11.4384 36.7513 10.5973 35.8278C9.75624 34.9044 11.1377 32.2765 12.4233 31.1055C13.709 29.9346 16.4973 28.7646 17.3384 29.688C18.1795 30.6115 16.7548 33.2787 15.4692 34.4497Z" fill="url(#paint3_linear_45_1647)"/>
<path d="M17.4645 40.1761C16.3996 41.5509 13.8901 43.1371 12.9026 42.3722C11.9151 41.6073 12.8236 38.7809 13.8885 37.4061C14.9535 36.0313 17.4988 34.3989 18.4863 35.1638C19.4737 35.9287 18.5295 38.8013 17.4645 40.1761Z" fill="url(#paint4_linear_45_1647)"/>
<path d="M21.6845 44.1578C20.7642 45.6333 18.4282 47.4655 17.3683 46.8045C16.3085 46.1435 16.9262 43.2397 17.8464 41.7641C18.7667 40.2886 21.1336 38.4068 22.1935 39.0678C23.2533 39.7288 22.6047 42.6822 21.6845 44.1578Z" fill="url(#paint5_linear_45_1647)"/>
<path d="M12.3812 13.9682C12.3601 15.7071 11.3137 18.4853 10.0647 18.4702C8.8157 18.455 7.83713 15.6521 7.85827 13.9132C7.87942 12.1743 8.92656 9.3376 10.1755 9.35278C11.4245 9.36797 12.4024 12.2293 12.3812 13.9682Z" fill="url(#paint6_linear_45_1647)"/>
<path d="M8.68157 19.5096C9.3431 21.1179 9.4683 24.0841 8.31313 24.5592C7.15796 25.0344 5.15987 22.8386 4.49833 21.2303C3.8368 19.6221 3.68937 16.6018 4.84453 16.1267C5.9997 15.6515 8.02003 17.9014 8.68157 19.5096Z" fill="url(#paint7_linear_45_1647)"/>
<path d="M7.221 26.3578C8.47115 27.5666 9.77355 30.2345 8.90528 31.1325C8.03702 32.0304 5.32688 30.8184 4.07673 29.6096C2.82659 28.4007 1.48216 25.6922 2.35043 24.7943C3.2187 23.8963 5.97085 25.149 7.221 26.3578Z" fill="url(#paint8_linear_45_1647)"/>
<path d="M6.87602 33.217C8.3387 34.1576 10.1384 36.5187 9.46278 37.5693C8.78718 38.6199 5.89216 37.9622 4.42948 37.0216C2.9668 36.081 1.11796 33.6882 1.79355 32.6376C2.46915 31.587 5.41334 32.2764 6.87602 33.217Z" fill="url(#paint9_linear_45_1647)"/>
<path d="M8.8492 40.3513C10.4437 41.0454 12.5984 43.0877 12.0999 44.233C11.6013 45.3783 8.63833 45.1928 7.04384 44.4987C5.44935 43.8047 3.24103 41.739 3.73956 40.5938C4.2381 39.4485 7.25471 39.6573 8.8492 40.3513Z" fill="url(#paint10_linear_45_1647)"/>
<path d="M12.5999 46.3884C14.3389 46.3884 17.1297 47.401 17.1297 48.6501C17.1297 49.8992 14.3389 50.9117 12.5999 50.9117C10.8609 50.9117 8.01169 49.8992 8.01169 48.6501C8.01169 47.401 10.8609 46.3884 12.5999 46.3884Z" fill="url(#paint11_linear_45_1647)"/>
<path d="M12.5999 46.3889C14.3389 46.3889 17.1297 47.4015 17.1297 48.6506C17.1297 49.8997 14.3389 50.9122 12.5999 50.9122C10.8609 50.9122 8.01169 49.8997 8.01169 48.6506C8.01169 47.4015 10.8609 46.3889 12.5999 46.3889Z" fill="url(#paint12_linear_45_1647)"/>
<path d="M17.6937 50.5649C19.2881 49.8706 22.2511 49.6848 22.7498 50.83C23.2485 51.9752 21.094 54.0178 19.4996 54.7121C17.9053 55.4064 14.8887 55.6156 14.39 54.4704C13.8913 53.3252 16.0993 51.2592 17.6937 50.5649Z" fill="url(#paint13_linear_45_1647)"/>
<rect x="25.9736" y="5.05469" width="52" height="52" rx="26" fill="url(#pattern0_45_1647)"/>
<path d="M85.2678 12.8878C86.4131 14.1964 89.0132 15.6294 89.9531 14.8067C90.893 13.984 89.8168 11.2172 88.6714 9.90863C87.526 8.6001 84.8875 7.12307 83.9476 7.94576C83.0077 8.76845 84.1224 11.5793 85.2678 12.8878Z" fill="url(#paint14_linear_45_1647)"/>
<path d="M87.8419 20.4097C89.3 21.3574 92.1918 22.0293 92.8725 20.982C93.5532 19.9347 91.7651 17.5648 90.307 16.6171C88.8489 15.6694 85.9081 14.9657 85.2274 16.013C84.5467 17.0603 86.3838 19.462 87.8419 20.4097Z" fill="url(#paint15_linear_45_1647)"/>
<path d="M89.0293 27.4502C90.4184 28.4965 93.2568 29.3668 94.0083 28.3691C94.7598 27.3714 93.1398 24.8835 91.7508 23.8372C90.3618 22.7909 87.4767 21.8854 86.7252 22.8831C85.9737 23.8809 87.6403 26.4039 89.0293 27.4502Z" fill="url(#paint16_linear_45_1647)"/>
<path d="M88.7564 34.4497C90.0421 35.6207 92.7872 36.7513 93.6283 35.8278C94.4693 34.9044 93.0879 32.2765 91.8023 31.1055C90.5166 29.9346 87.7283 28.7646 86.8872 29.688C86.0461 30.6115 87.4708 33.2787 88.7564 34.4497Z" fill="url(#paint17_linear_45_1647)"/>
<path d="M86.7611 40.1761C87.826 41.5509 90.3355 43.1371 91.323 42.3722C92.3104 41.6073 91.402 38.7809 90.337 37.4061C89.2721 36.0313 86.7268 34.3989 85.7393 35.1638C84.7518 35.9287 85.6961 38.8013 86.7611 40.1761Z" fill="url(#paint18_linear_45_1647)"/>
<path d="M82.5411 44.1578C83.4614 45.6333 85.7974 47.4655 86.8572 46.8045C87.9171 46.1435 87.2994 43.2397 86.3792 41.7641C85.4589 40.2886 83.092 38.4068 82.0321 39.0678C80.9723 39.7288 81.6209 42.6822 82.5411 44.1578Z" fill="url(#paint19_linear_45_1647)"/>
<path d="M91.8443 13.9682C91.8655 15.7071 92.9119 18.4853 94.1609 18.4702C95.4099 18.455 96.3885 15.6521 96.3673 13.9132C96.3462 12.1743 95.299 9.3376 94.05 9.35278C92.8011 9.36797 91.8232 12.2293 91.8443 13.9682Z" fill="url(#paint20_linear_45_1647)"/>
<path d="M95.544 19.5096C94.8825 21.1179 94.7573 24.0841 95.9125 24.5592C97.0676 25.0344 99.0657 22.8386 99.7273 21.2303C100.389 19.6221 100.536 16.6018 99.3811 16.1267C98.2259 15.6515 96.2056 17.9014 95.544 19.5096Z" fill="url(#paint21_linear_45_1647)"/>
<path d="M97.0046 26.3578C95.7544 27.5666 94.452 30.2345 95.3203 31.1325C96.1886 32.0304 98.8987 30.8184 100.149 29.6096C101.399 28.4007 102.743 25.6922 101.875 24.7943C101.007 23.8963 98.2547 25.149 97.0046 26.3578Z" fill="url(#paint22_linear_45_1647)"/>
<path d="M97.3496 33.217C95.8869 34.1576 94.0872 36.5187 94.7628 37.5693C95.4384 38.6199 98.3334 37.9622 99.7961 37.0216C101.259 36.081 103.108 33.6882 102.432 32.6376C101.756 31.587 98.8122 32.2764 97.3496 33.217Z" fill="url(#paint23_linear_45_1647)"/>
<path d="M95.3764 40.3513C93.7819 41.0454 91.6272 43.0877 92.1257 44.233C92.6242 45.3783 95.5873 45.1928 97.1817 44.4987C98.7762 43.8047 100.985 41.739 100.486 40.5938C99.9875 39.4485 96.9709 39.6573 95.3764 40.3513Z" fill="url(#paint24_linear_45_1647)"/>
<path d="M91.6256 46.3884C89.8866 46.3884 87.0958 47.401 87.0958 48.6501C87.0958 49.8992 89.8866 50.9117 91.6256 50.9117C93.3647 50.9117 96.2139 49.8992 96.2139 48.6501C96.2139 47.401 93.3647 46.3884 91.6256 46.3884Z" fill="url(#paint25_linear_45_1647)"/>
<path d="M91.6256 46.3889C89.8866 46.3889 87.0958 47.4015 87.0958 48.6506C87.0958 49.8997 89.8866 50.9122 91.6256 50.9122C93.3647 50.9122 96.2139 49.8997 96.2139 48.6506C96.2139 47.4015 93.3647 46.3889 91.6256 46.3889Z" fill="url(#paint26_linear_45_1647)"/>
<path d="M86.5319 50.5649C84.9375 49.8706 81.9745 49.6848 81.4758 50.83C80.9771 51.9752 83.1315 54.0178 84.7259 54.7121C86.3203 55.4064 89.3369 55.6156 89.8356 54.4704C90.3343 53.3252 88.1263 51.2592 86.5319 50.5649Z" fill="url(#paint27_linear_45_1647)"/>
<rect x="42.1133" y="46.5" width="20" height="20" rx="10" fill="black"/>
<rect x="42.1133" y="46.5" width="20" height="20" rx="10" fill="url(#paint28_linear_45_1647)"/>
<rect x="42.1133" y="46.5" width="20" height="20" rx="10" fill="url(#paint29_linear_45_1647)"/>
<mask id="path-31-outside-1_45_1647" maskUnits="userSpaceOnUse" x="46.6133" y="50" width="10" height="12" fill="black">
<rect fill="white" x="46.6133" y="50" width="10" height="12"/>
<path d="M51.4974 61.1344C50.8434 61.1344 50.2162 61.0403 49.6158 60.8522C49.0155 60.655 48.5227 60.3862 48.1374 60.0458L48.7019 58.7421C49.123 59.0646 49.5576 59.3021 50.0056 59.4544C50.4626 59.6067 50.9419 59.6829 51.4437 59.6829C52.053 59.6829 52.5144 59.5619 52.828 59.32C53.1416 59.0781 53.2984 58.7242 53.2984 58.2582C53.2984 57.8102 53.1416 57.4742 52.828 57.2502C52.5234 57.0173 52.0754 56.9008 51.484 56.9008H49.9518V55.5165H51.3362C51.8469 55.5165 52.2546 55.391 52.5592 55.1402C52.8638 54.8893 53.0162 54.5443 53.0162 54.1053C53.0162 53.6931 52.8728 53.3795 52.5861 53.1645C52.3083 52.9494 51.9051 52.8419 51.3765 52.8419C50.4267 52.8419 49.589 53.1645 48.8632 53.8096L48.2987 52.5194C48.684 52.161 49.1589 51.8832 49.7234 51.6861C50.2968 51.489 50.8971 51.3904 51.5243 51.3904C52.5099 51.3904 53.2805 51.6144 53.836 52.0624C54.4005 52.5014 54.6827 53.1152 54.6827 53.9037C54.6827 54.4682 54.5214 54.9565 54.1989 55.3686C53.8853 55.7718 53.4507 56.0406 52.8952 56.175V56.0138C53.5493 56.1213 54.0555 56.3901 54.4139 56.8202C54.7813 57.2413 54.965 57.7699 54.965 58.4061C54.965 59.2483 54.6558 59.9158 54.0376 60.4086C53.4194 60.8925 52.5726 61.1344 51.4974 61.1344Z"/>
</mask>
<path d="M51.4974 61.1344C50.8434 61.1344 50.2162 61.0403 49.6158 60.8522C49.0155 60.655 48.5227 60.3862 48.1374 60.0458L48.7019 58.7421C49.123 59.0646 49.5576 59.3021 50.0056 59.4544C50.4626 59.6067 50.9419 59.6829 51.4437 59.6829C52.053 59.6829 52.5144 59.5619 52.828 59.32C53.1416 59.0781 53.2984 58.7242 53.2984 58.2582C53.2984 57.8102 53.1416 57.4742 52.828 57.2502C52.5234 57.0173 52.0754 56.9008 51.484 56.9008H49.9518V55.5165H51.3362C51.8469 55.5165 52.2546 55.391 52.5592 55.1402C52.8638 54.8893 53.0162 54.5443 53.0162 54.1053C53.0162 53.6931 52.8728 53.3795 52.5861 53.1645C52.3083 52.9494 51.9051 52.8419 51.3765 52.8419C50.4267 52.8419 49.589 53.1645 48.8632 53.8096L48.2987 52.5194C48.684 52.161 49.1589 51.8832 49.7234 51.6861C50.2968 51.489 50.8971 51.3904 51.5243 51.3904C52.5099 51.3904 53.2805 51.6144 53.836 52.0624C54.4005 52.5014 54.6827 53.1152 54.6827 53.9037C54.6827 54.4682 54.5214 54.9565 54.1989 55.3686C53.8853 55.7718 53.4507 56.0406 52.8952 56.175V56.0138C53.5493 56.1213 54.0555 56.3901 54.4139 56.8202C54.7813 57.2413 54.965 57.7699 54.965 58.4061C54.965 59.2483 54.6558 59.9158 54.0376 60.4086C53.4194 60.8925 52.5726 61.1344 51.4974 61.1344Z" fill="#212137"/>
<path d="M49.6158 60.8522L49.3974 61.5173L49.4065 61.5201L49.6158 60.8522ZM48.1374 60.0458L47.4951 59.7676L47.2932 60.2339L47.6739 60.5703L48.1374 60.0458ZM48.7019 58.7421L49.1276 58.1864L48.4158 57.6412L48.0596 58.4639L48.7019 58.7421ZM50.0056 59.4544L49.7803 60.1172L49.7842 60.1185L50.0056 59.4544ZM52.828 59.32L53.2556 59.8742L52.828 59.32ZM52.828 57.2502L52.4028 57.8063L52.4118 57.8132L52.4211 57.8199L52.828 57.2502ZM49.9518 56.9008H49.2518V57.6008H49.9518V56.9008ZM49.9518 55.5165V54.8165H49.2518V55.5165H49.9518ZM52.5592 55.1402L53.0042 55.6805H53.0042L52.5592 55.1402ZM52.5861 53.1645L52.1575 53.7181L52.1661 53.7245L52.5861 53.1645ZM48.8632 53.8096L48.2219 54.0902L48.6081 54.9729L49.3283 54.3328L48.8632 53.8096ZM48.2987 52.5194L47.8219 52.0068L47.4584 52.345L47.6574 52.7999L48.2987 52.5194ZM49.7234 51.6861L49.4958 51.0241L49.4926 51.0252L49.7234 51.6861ZM53.836 52.0624L53.3965 52.6074L53.4062 52.6149L53.836 52.0624ZM54.1989 55.3686L53.6476 54.9372L53.6463 54.9389L54.1989 55.3686ZM52.8952 56.175H52.1952V57.0646L53.0598 56.8554L52.8952 56.175ZM52.8952 56.0138L53.0087 55.323L52.1952 55.1893V56.0138H52.8952ZM54.4139 56.8202L53.8762 57.2683L53.8812 57.2744L53.8864 57.2803L54.4139 56.8202ZM54.0376 60.4086L54.469 60.9599L54.4739 60.956L54.0376 60.4086ZM51.4974 60.4344C50.9115 60.4344 50.3551 60.3503 49.8252 60.1842L49.4065 61.5201C50.0772 61.7303 50.7752 61.8344 51.4974 61.8344V60.4344ZM49.8342 60.1871C49.3042 60.0131 48.9006 59.786 48.601 59.5212L47.6739 60.5703C48.1448 60.9865 48.7269 61.297 49.3975 61.5172L49.8342 60.1871ZM48.7798 60.3239L49.3443 59.0202L48.0596 58.4639L47.4951 59.7676L48.7798 60.3239ZM48.2763 59.2978C48.7506 59.6611 49.252 59.9375 49.7803 60.1171L50.2309 58.7917C49.8632 58.6666 49.4954 58.4681 49.1276 58.1864L48.2763 59.2978ZM49.7842 60.1185C50.3155 60.2956 50.8698 60.3829 51.4437 60.3829V58.9829C51.014 58.9829 50.6096 58.9179 50.227 58.7903L49.7842 60.1185ZM51.4437 60.3829C52.129 60.3829 52.7691 60.2495 53.2556 59.8742L52.4004 58.7658C52.2597 58.8743 51.9769 58.9829 51.4437 58.9829V60.3829ZM53.2556 59.8742C53.7724 59.4755 53.9984 58.8981 53.9984 58.2582H52.5984C52.5984 58.5502 52.5108 58.6806 52.4004 58.7658L53.2556 59.8742ZM53.9984 58.2582C53.9984 57.6263 53.7642 57.0587 53.2349 56.6806L52.4211 57.8199C52.519 57.8898 52.5984 57.9942 52.5984 58.2582H53.9984ZM53.2532 56.6942C52.7761 56.3294 52.1506 56.2008 51.484 56.2008V57.6008C52.0002 57.6008 52.2706 57.7052 52.4028 57.8063L53.2532 56.6942ZM51.484 56.2008H49.9518V57.6008H51.484V56.2008ZM50.6518 56.9008V55.5165H49.2518V56.9008H50.6518ZM49.9518 56.2165H51.3362V54.8165H49.9518V56.2165ZM51.3362 56.2165C51.9608 56.2165 52.5413 56.0617 53.0042 55.6805L52.1142 54.5998C51.9678 54.7204 51.733 54.8165 51.3362 54.8165V56.2165ZM53.0042 55.6805C53.4898 55.2806 53.7162 54.7269 53.7162 54.1053H52.3162C52.3162 54.3618 52.2379 54.4979 52.1142 54.5998L53.0042 55.6805ZM53.7162 54.1053C53.7162 53.5104 53.4972 52.9728 53.0061 52.6045L52.1661 53.7245C52.2484 53.7863 52.3162 53.8758 52.3162 54.1053H53.7162ZM53.0146 52.611C52.566 52.2636 51.9856 52.1419 51.3765 52.1419V53.5419C51.8246 53.5419 52.0507 53.6352 52.1576 53.718L53.0146 52.611ZM51.3765 52.1419C50.2511 52.1419 49.2489 52.5302 48.3981 53.2864L49.3283 54.3328C49.929 53.7988 50.6023 53.5419 51.3765 53.5419V52.1419ZM49.5045 53.529L48.94 52.2388L47.6574 52.7999L48.2219 54.0902L49.5045 53.529ZM48.7755 53.0319C49.0809 52.7478 49.4686 52.5165 49.9541 52.3469L49.4926 51.0252C48.8492 51.2499 48.2871 51.5741 47.8219 52.0068L48.7755 53.0319ZM49.9509 52.3481C50.4486 52.177 50.9719 52.0904 51.5243 52.0904V50.6904C50.8224 50.6904 50.145 50.8009 49.4958 51.0241L49.9509 52.3481ZM51.5243 52.0904C52.4103 52.0904 53.0055 52.2919 53.3966 52.6073L54.2754 51.5175C53.5555 50.9369 52.6095 50.6904 51.5243 50.6904V52.0904ZM53.4062 52.6149C53.7811 52.9065 53.9827 53.3058 53.9827 53.9037H55.3827C55.3827 52.9246 55.0198 52.0964 54.2658 51.5099L53.4062 52.6149ZM53.9827 53.9037C53.9827 54.3249 53.866 54.6582 53.6476 54.9372L54.7501 55.8001C55.1769 55.2548 55.3827 54.6114 55.3827 53.9037H53.9827ZM53.6463 54.9389C53.4415 55.2022 53.1515 55.3928 52.7306 55.4947L53.0598 56.8554C53.7499 56.6885 54.329 56.3415 54.7514 55.7984L53.6463 54.9389ZM53.5952 56.175V56.0138H52.1952V56.175H53.5952ZM52.7817 56.7045C53.3019 56.79 53.6446 56.9904 53.8762 57.2683L54.9517 56.372C54.4664 55.7898 53.7967 55.4525 53.0087 55.323L52.7817 56.7045ZM53.8864 57.2803C54.1272 57.5563 54.265 57.9142 54.265 58.4061H55.665C55.665 57.6257 55.4354 56.9262 54.9414 56.36L53.8864 57.2803ZM54.265 58.4061C54.265 59.0513 54.0408 59.511 53.6013 59.8613L54.4739 60.956C55.2709 60.3207 55.665 59.4454 55.665 58.4061H54.265ZM53.6062 59.8574C53.1496 60.2147 52.4734 60.4344 51.4974 60.4344V61.8344C52.6719 61.8344 53.6891 61.5702 54.469 60.9599L53.6062 59.8574Z" fill="#212137" mask="url(#path-31-outside-1_45_1647)"/>
<defs>
<pattern id="pattern0_45_1647" patternContentUnits="objectBoundingBox" width="1" height="1">
<use xlink:href="#image0_45_1647" transform="translate(-3.12684 -1.34808) scale(0.00294985)"/>
</pattern>
<linearGradient id="paint0_linear_45_1647" x1="18.5405" y1="6.29906" x2="15.754" y2="15.5984" gradientUnits="userSpaceOnUse">
<stop stop-color="#FFF4E5"/>
<stop offset="1" stop-color="#FFC272"/>
</linearGradient>
<linearGradient id="paint1_linear_45_1647" x1="17.774" y1="13.9558" x2="12.5634" y2="22.1468" gradientUnits="userSpaceOnUse">
<stop stop-color="#FFF4E5"/>
<stop offset="1" stop-color="#FFC272"/>
</linearGradient>
<linearGradient id="paint2_linear_45_1647" x1="16.1369" y1="20.9156" x2="11.5053" y2="29.4473" gradientUnits="userSpaceOnUse">
<stop stop-color="#FFF4E5"/>
<stop offset="1" stop-color="#FFC272"/>
</linearGradient>
<linearGradient id="paint3_linear_45_1647" x1="15.7977" y1="27.8559" x2="11.98" y2="36.7816" gradientUnits="userSpaceOnUse">
<stop stop-color="#FFF4E5"/>
<stop offset="1" stop-color="#FFC272"/>
</linearGradient>
<linearGradient id="paint4_linear_45_1647" x1="16.6532" y1="33.6241" x2="14.4289" y2="43.0737" gradientUnits="userSpaceOnUse">
<stop stop-color="#FFF4E5"/>
<stop offset="1" stop-color="#FFC272"/>
</linearGradient>
<linearGradient id="paint5_linear_45_1647" x1="20.2139" y1="37.7216" x2="18.9578" y2="47.3479" gradientUnits="userSpaceOnUse">
<stop stop-color="#FFF4E5"/>
<stop offset="1" stop-color="#FFC272"/>
</linearGradient>
<linearGradient id="paint6_linear_45_1647" x1="7.78489" y1="9.22902" x2="11.7054" y2="18.11" gradientUnits="userSpaceOnUse">
<stop stop-color="#FFF4E5"/>
<stop offset="1" stop-color="#FFC272"/>
</linearGradient>
<linearGradient id="paint7_linear_45_1647" x1="2.59636" y1="16.949" x2="9.68173" y2="23.5853" gradientUnits="userSpaceOnUse">
<stop stop-color="#FFF4E5"/>
<stop offset="1" stop-color="#FFC272"/>
</linearGradient>
<linearGradient id="paint8_linear_45_1647" x1="0.619627" y1="26.448" x2="9.76943" y2="29.6921" gradientUnits="userSpaceOnUse">
<stop stop-color="#FFF4E5"/>
<stop offset="1" stop-color="#FFC272"/>
</linearGradient>
<linearGradient id="paint9_linear_45_1647" x1="0.420148" y1="34.5983" x2="10.0281" y2="35.9876" gradientUnits="userSpaceOnUse">
<stop stop-color="#FFF4E5"/>
<stop offset="1" stop-color="#FFC272"/>
</linearGradient>
<linearGradient id="paint10_linear_45_1647" x1="2.69805" y1="42.7492" x2="12.4045" y2="42.5811" gradientUnits="userSpaceOnUse">
<stop stop-color="#FFF4E5"/>
<stop offset="1" stop-color="#FFC272"/>
</linearGradient>
<linearGradient id="paint11_linear_45_1647" x1="7.917" y1="51.0421" x2="16.7497" y2="47.0139" gradientUnits="userSpaceOnUse">
<stop stop-color="#FFF4E5"/>
<stop offset="1" stop-color="#FFC272"/>
</linearGradient>
<linearGradient id="paint12_linear_45_1647" x1="7.917" y1="51.0426" x2="16.7497" y2="47.0144" gradientUnits="userSpaceOnUse">
<stop stop-color="#FFF4E5"/>
<stop offset="1" stop-color="#FFC272"/>
</linearGradient>
<linearGradient id="paint13_linear_45_1647" x1="15.2582" y1="56.7013" x2="21.7481" y2="49.4816" gradientUnits="userSpaceOnUse">
<stop stop-color="#FFF4E5"/>
<stop offset="1" stop-color="#FFC272"/>
</linearGradient>
<linearGradient id="paint14_linear_45_1647" x1="85.6851" y1="6.29906" x2="88.4716" y2="15.5984" gradientUnits="userSpaceOnUse">
<stop stop-color="#FFF4E5"/>
<stop offset="1" stop-color="#FFC272"/>
</linearGradient>
<linearGradient id="paint15_linear_45_1647" x1="86.4516" y1="13.9558" x2="91.6622" y2="22.1468" gradientUnits="userSpaceOnUse">
<stop stop-color="#FFF4E5"/>
<stop offset="1" stop-color="#FFC272"/>
</linearGradient>
<linearGradient id="paint16_linear_45_1647" x1="88.0887" y1="20.9156" x2="92.7203" y2="29.4473" gradientUnits="userSpaceOnUse">
<stop stop-color="#FFF4E5"/>
<stop offset="1" stop-color="#FFC272"/>
</linearGradient>
<linearGradient id="paint17_linear_45_1647" x1="88.4279" y1="27.8559" x2="92.2455" y2="36.7816" gradientUnits="userSpaceOnUse">
<stop stop-color="#FFF4E5"/>
<stop offset="1" stop-color="#FFC272"/>
</linearGradient>
<linearGradient id="paint18_linear_45_1647" x1="87.5724" y1="33.6241" x2="89.7967" y2="43.0737" gradientUnits="userSpaceOnUse">
<stop stop-color="#FFF4E5"/>
<stop offset="1" stop-color="#FFC272"/>
</linearGradient>
<linearGradient id="paint19_linear_45_1647" x1="84.0116" y1="37.7216" x2="85.2678" y2="47.3479" gradientUnits="userSpaceOnUse">
<stop stop-color="#FFF4E5"/>
<stop offset="1" stop-color="#FFC272"/>
</linearGradient>
<linearGradient id="paint20_linear_45_1647" x1="96.4407" y1="9.22902" x2="92.5202" y2="18.11" gradientUnits="userSpaceOnUse">
<stop stop-color="#FFF4E5"/>
<stop offset="1" stop-color="#FFC272"/>
</linearGradient>
<linearGradient id="paint21_linear_45_1647" x1="101.629" y1="16.949" x2="94.5439" y2="23.5853" gradientUnits="userSpaceOnUse">
<stop stop-color="#FFF4E5"/>
<stop offset="1" stop-color="#FFC272"/>
</linearGradient>
<linearGradient id="paint22_linear_45_1647" x1="103.606" y1="26.448" x2="94.4562" y2="29.6921" gradientUnits="userSpaceOnUse">
<stop stop-color="#FFF4E5"/>
<stop offset="1" stop-color="#FFC272"/>
</linearGradient>
<linearGradient id="paint23_linear_45_1647" x1="103.805" y1="34.5983" x2="94.1975" y2="35.9876" gradientUnits="userSpaceOnUse">
<stop stop-color="#FFF4E5"/>
<stop offset="1" stop-color="#FFC272"/>
</linearGradient>
<linearGradient id="paint24_linear_45_1647" x1="101.528" y1="42.7492" x2="91.8211" y2="42.5811" gradientUnits="userSpaceOnUse">
<stop stop-color="#FFF4E5"/>
<stop offset="1" stop-color="#FFC272"/>
</linearGradient>
<linearGradient id="paint25_linear_45_1647" x1="96.3086" y1="51.0421" x2="87.4759" y2="47.0139" gradientUnits="userSpaceOnUse">
<stop stop-color="#FFF4E5"/>
<stop offset="1" stop-color="#FFC272"/>
</linearGradient>
<linearGradient id="paint26_linear_45_1647" x1="96.3086" y1="51.0426" x2="87.4759" y2="47.0144" gradientUnits="userSpaceOnUse">
<stop stop-color="#FFF4E5"/>
<stop offset="1" stop-color="#FFC272"/>
</linearGradient>
<linearGradient id="paint27_linear_45_1647" x1="88.9674" y1="56.7013" x2="82.4775" y2="49.4816" gradientUnits="userSpaceOnUse">
<stop stop-color="#FFF4E5"/>
<stop offset="1" stop-color="#FFC272"/>
</linearGradient>
<linearGradient id="paint28_linear_45_1647" x1="41.537" y1="46.2922" x2="46.574" y2="68.5563" gradientUnits="userSpaceOnUse">
<stop stop-color="#FFF7CE"/>
<stop offset="1" stop-color="#FADD44"/>
</linearGradient>
<linearGradient id="paint29_linear_45_1647" x1="41.537" y1="46.2922" x2="46.574" y2="68.5563" gradientUnits="userSpaceOnUse">
<stop stop-color="#FFF4E5"/>
<stop offset="1" stop-color="#FFC272"/>
</linearGradient>
</defs>
</svg>
