<svg width="104" height="67" viewBox="0 0 104 67" fill="none" xmlns="http://www.w3.org/2000/svg" xmlns:xlink="http://www.w3.org/1999/xlink">
<path d="M18.4578 12.5793C17.3124 13.8878 14.7124 15.3208 13.7725 14.4981C12.8326 13.6755 13.9088 10.9086 15.0542 9.60004C16.1996 8.29151 18.8381 6.81448 19.778 7.63717C20.7179 8.45985 19.6032 11.2707 18.4578 12.5793Z" fill="url(#paint0_linear_45_2750)"/>
<path d="M15.8837 20.1011C14.4256 21.0488 11.5338 21.7207 10.8531 20.6734C10.1724 19.6261 11.9605 17.2562 13.4186 16.3085C14.8767 15.3608 17.8175 14.6571 18.4982 15.7044C19.1789 16.7517 17.3417 19.1534 15.8837 20.1011Z" fill="url(#paint1_linear_45_2750)"/>
<path d="M14.6962 27.1416C13.3072 28.1879 10.4688 29.0582 9.71731 28.0605C8.9658 27.0628 10.5857 24.5749 11.9748 23.5286C13.3638 22.4823 16.2489 21.5768 17.0004 22.5746C17.7519 23.5723 16.0853 26.0953 14.6962 27.1416Z" fill="url(#paint2_linear_45_2750)"/>
<path d="M14.9692 34.1411C13.6835 35.3121 10.9384 36.4427 10.0973 35.5192C9.25624 34.5958 10.6377 31.9679 11.9233 30.797C13.209 29.626 15.9973 28.456 16.8384 29.3794C17.6795 30.3029 16.2548 32.9701 14.9692 34.1411Z" fill="url(#paint3_linear_45_2750)"/>
<path d="M16.9645 39.8675C15.8996 41.2423 13.3901 42.8285 12.4026 42.0636C11.4151 41.2987 12.3236 38.4723 13.3885 37.0975C14.4535 35.7227 16.9988 34.0903 17.9863 34.8552C18.9737 35.6201 18.0295 38.4927 16.9645 39.8675Z" fill="url(#paint4_linear_45_2750)"/>
<path d="M21.1845 43.8492C20.2642 45.3247 17.9282 47.1569 16.8683 46.4959C15.8085 45.8349 16.4262 42.9311 17.3464 41.4555C18.2667 39.98 20.6336 38.0982 21.6935 38.7592C22.7533 39.4202 22.1047 42.3736 21.1845 43.8492Z" fill="url(#paint5_linear_45_2750)"/>
<path d="M11.8812 13.6596C11.8601 15.3985 10.8137 18.1768 9.56468 18.1616C8.3157 18.1464 7.33713 15.3435 7.35827 13.6046C7.37942 11.8657 8.42656 9.029 9.67555 9.04419C10.9245 9.05938 11.9024 11.9207 11.8812 13.6596Z" fill="url(#paint6_linear_45_2750)"/>
<path d="M8.18157 19.201C8.8431 20.8093 8.9683 23.7755 7.81313 24.2506C6.65796 24.7258 4.65987 22.53 3.99833 20.9217C3.3368 19.3135 3.18937 16.2932 4.34453 15.8181C5.4997 15.3429 7.52003 17.5928 8.18157 19.201Z" fill="url(#paint7_linear_45_2750)"/>
<path d="M6.721 26.0492C7.97115 27.258 9.27355 29.9259 8.40528 30.8239C7.53702 31.7218 4.82688 30.5098 3.57673 29.301C2.32659 28.0921 0.982165 25.3836 1.85043 24.4857C2.7187 23.5877 5.47085 24.8404 6.721 26.0492Z" fill="url(#paint8_linear_45_2750)"/>
<path d="M6.37602 32.9084C7.8387 33.849 9.63837 36.2101 8.96278 37.2607C8.28718 38.3113 5.39216 37.6536 3.92948 36.713C2.4668 35.7724 0.617961 33.3796 1.29355 32.329C1.96915 31.2784 4.91334 31.9678 6.37602 32.9084Z" fill="url(#paint9_linear_45_2750)"/>
<path d="M8.3492 40.0428C9.94369 40.7368 12.0984 42.7791 11.5999 43.9244C11.1013 45.0697 8.13833 44.8842 6.54384 44.1902C4.94935 43.4961 2.74103 41.4304 3.23956 40.2852C3.7381 39.1399 6.75471 39.3487 8.3492 40.0428Z" fill="url(#paint10_linear_45_2750)"/>
<path d="M12.0999 46.0798C13.8389 46.0798 16.6297 47.0924 16.6297 48.3415C16.6297 49.5906 13.8389 50.6031 12.0999 50.6031C10.3609 50.6031 7.51169 49.5906 7.51169 48.3415C7.51169 47.0924 10.3609 46.0798 12.0999 46.0798Z" fill="url(#paint11_linear_45_2750)"/>
<path d="M12.0999 46.0803C13.8389 46.0803 16.6297 47.0929 16.6297 48.342C16.6297 49.5911 13.8389 50.6036 12.0999 50.6036C10.3609 50.6036 7.51169 49.5911 7.51169 48.342C7.51169 47.0929 10.3609 46.0803 12.0999 46.0803Z" fill="url(#paint12_linear_45_2750)"/>
<path d="M17.1937 50.2564C18.7881 49.5621 21.7511 49.3762 22.2498 50.5214C22.7485 51.6666 20.594 53.7092 18.9996 54.4035C17.4053 55.0978 14.3887 55.307 13.89 54.1618C13.3913 53.0166 15.5993 50.9506 17.1937 50.2564Z" fill="url(#paint13_linear_45_2750)"/>
<rect x="25.4736" y="4.74609" width="52" height="52" rx="26" fill="url(#pattern0_45_2750)"/>
<path d="M84.7678 12.5793C85.9131 13.8878 88.5132 15.3208 89.4531 14.4981C90.393 13.6755 89.3168 10.9086 88.1714 9.60004C87.026 8.29151 84.3875 6.81448 83.4476 7.63717C82.5077 8.45985 83.6224 11.2707 84.7678 12.5793Z" fill="url(#paint14_linear_45_2750)"/>
<path d="M87.3419 20.1011C88.8 21.0488 91.6918 21.7207 92.3725 20.6734C93.0532 19.6261 91.2651 17.2562 89.807 16.3085C88.3489 15.3608 85.4081 14.6571 84.7274 15.7044C84.0467 16.7517 85.8838 19.1534 87.3419 20.1011Z" fill="url(#paint15_linear_45_2750)"/>
<path d="M88.5293 27.1416C89.9184 28.1879 92.7568 29.0582 93.5083 28.0605C94.2598 27.0628 92.6398 24.5749 91.2508 23.5286C89.8618 22.4823 86.9767 21.5768 86.2252 22.5746C85.4737 23.5723 87.1403 26.0953 88.5293 27.1416Z" fill="url(#paint16_linear_45_2750)"/>
<path d="M88.2564 34.1411C89.5421 35.3121 92.2872 36.4427 93.1283 35.5192C93.9693 34.5958 92.5879 31.9679 91.3023 30.797C90.0166 29.626 87.2283 28.456 86.3872 29.3794C85.5461 30.3029 86.9708 32.9701 88.2564 34.1411Z" fill="url(#paint17_linear_45_2750)"/>
<path d="M86.2611 39.8675C87.326 41.2423 89.8355 42.8285 90.823 42.0636C91.8104 41.2987 90.902 38.4723 89.837 37.0975C88.7721 35.7227 86.2268 34.0903 85.2393 34.8552C84.2518 35.6201 85.1961 38.4927 86.2611 39.8675Z" fill="url(#paint18_linear_45_2750)"/>
<path d="M82.0411 43.8492C82.9614 45.3247 85.2974 47.1569 86.3572 46.4959C87.4171 45.8349 86.7994 42.9311 85.8792 41.4555C84.9589 39.98 82.592 38.0982 81.5321 38.7592C80.4723 39.4202 81.1209 42.3736 82.0411 43.8492Z" fill="url(#paint19_linear_45_2750)"/>
<path d="M91.3443 13.6596C91.3655 15.3985 92.4119 18.1768 93.6609 18.1616C94.9099 18.1464 95.8885 15.3435 95.8673 13.6046C95.8462 11.8657 94.799 9.029 93.55 9.04419C92.3011 9.05938 91.3232 11.9207 91.3443 13.6596Z" fill="url(#paint20_linear_45_2750)"/>
<path d="M95.044 19.201C94.3825 20.8093 94.2573 23.7755 95.4125 24.2506C96.5676 24.7258 98.5657 22.53 99.2273 20.9217C99.8888 19.3135 100.036 16.2932 98.8811 15.8181C97.7259 15.3429 95.7056 17.5928 95.044 19.201Z" fill="url(#paint21_linear_45_2750)"/>
<path d="M96.5046 26.0492C95.2544 27.258 93.952 29.9259 94.8203 30.8239C95.6886 31.7218 98.3987 30.5098 99.6489 29.301C100.899 28.0921 102.243 25.3836 101.375 24.4857C100.507 23.5877 97.7547 24.8404 96.5046 26.0492Z" fill="url(#paint22_linear_45_2750)"/>
<path d="M96.8496 32.9084C95.3869 33.849 93.5872 36.2101 94.2628 37.2607C94.9384 38.3113 97.8334 37.6536 99.2961 36.713C100.759 35.7724 102.608 33.3796 101.932 32.329C101.256 31.2784 98.3122 31.9678 96.8496 32.9084Z" fill="url(#paint23_linear_45_2750)"/>
<path d="M94.8764 40.0428C93.2819 40.7368 91.1272 42.7791 91.6257 43.9244C92.1242 45.0697 95.0873 44.8842 96.6817 44.1902C98.2762 43.4961 100.485 41.4304 99.986 40.2852C99.4875 39.1399 96.4709 39.3487 94.8764 40.0428Z" fill="url(#paint24_linear_45_2750)"/>
<path d="M91.1256 46.0798C89.3866 46.0798 86.5958 47.0924 86.5958 48.3415C86.5958 49.5906 89.3866 50.6031 91.1256 50.6031C92.8647 50.6031 95.7139 49.5906 95.7139 48.3415C95.7139 47.0924 92.8647 46.0798 91.1256 46.0798Z" fill="url(#paint25_linear_45_2750)"/>
<path d="M91.1256 46.0803C89.3866 46.0803 86.5958 47.0929 86.5958 48.342C86.5958 49.5911 89.3866 50.6036 91.1256 50.6036C92.8647 50.6036 95.7139 49.5911 95.7139 48.342C95.7139 47.0929 92.8647 46.0803 91.1256 46.0803Z" fill="url(#paint26_linear_45_2750)"/>
<path d="M86.0319 50.2564C84.4375 49.5621 81.4745 49.3762 80.9758 50.5214C80.4771 51.6666 82.6315 53.7092 84.2259 54.4035C85.8203 55.0978 88.8369 55.307 89.3356 54.1618C89.8343 53.0166 87.6263 50.9506 86.0319 50.2564Z" fill="url(#paint27_linear_45_2750)"/>
<rect x="41.6133" y="46.1914" width="20" height="20" rx="10" fill="black"/>
<rect x="41.6133" y="46.1914" width="20" height="20" rx="10" fill="url(#paint28_linear_45_2750)"/>
<rect x="41.6133" y="46.1914" width="20" height="20" rx="10" fill="url(#paint29_linear_45_2750)"/>
<mask id="path-31-outside-1_45_2750" maskUnits="userSpaceOnUse" x="46.1133" y="49.6914" width="10" height="12" fill="black">
<rect fill="white" x="46.1133" y="49.6914" width="10" height="12"/>
<path d="M48.1616 60.6914V59.4146L51.3066 56.1352C51.7008 55.7231 51.992 55.3423 52.1802 54.9928C52.3683 54.6434 52.4624 54.285 52.4624 53.9176C52.4624 53.4607 52.319 53.1157 52.0323 52.8828C51.7456 52.6498 51.329 52.5333 50.7824 52.5333C50.3434 52.5333 49.9222 52.614 49.519 52.7752C49.1158 52.9276 48.7216 53.1695 48.3363 53.501L47.7718 52.2108C48.1571 51.8703 48.632 51.597 49.1965 51.3909C49.7699 51.1848 50.3702 51.0818 50.9974 51.0818C52.0189 51.0818 52.8029 51.3103 53.3494 51.7672C53.896 52.2242 54.1693 52.8783 54.1693 53.7295C54.1693 54.3208 54.0304 54.8853 53.7526 55.4229C53.4749 55.9516 53.0448 56.5071 52.4624 57.0895L49.8416 59.7103V59.2533H54.5456V60.6914H48.1616Z"/>
</mask>
<path d="M48.1616 60.6914V59.4146L51.3066 56.1352C51.7008 55.7231 51.992 55.3423 52.1802 54.9928C52.3683 54.6434 52.4624 54.285 52.4624 53.9176C52.4624 53.4607 52.319 53.1157 52.0323 52.8828C51.7456 52.6498 51.329 52.5333 50.7824 52.5333C50.3434 52.5333 49.9222 52.614 49.519 52.7752C49.1158 52.9276 48.7216 53.1695 48.3363 53.501L47.7718 52.2108C48.1571 51.8703 48.632 51.597 49.1965 51.3909C49.7699 51.1848 50.3702 51.0818 50.9974 51.0818C52.0189 51.0818 52.8029 51.3103 53.3494 51.7672C53.896 52.2242 54.1693 52.8783 54.1693 53.7295C54.1693 54.3208 54.0304 54.8853 53.7526 55.4229C53.4749 55.9516 53.0448 56.5071 52.4624 57.0895L49.8416 59.7103V59.2533H54.5456V60.6914H48.1616Z" fill="#212137"/>
<path d="M48.1616 60.6914H47.4616V61.3914H48.1616V60.6914ZM48.1616 59.4146L47.6564 58.9301L47.4616 59.1332V59.4146H48.1616ZM51.3066 56.1352L51.8118 56.6198L51.8124 56.6191L51.3066 56.1352ZM52.1802 54.9928L51.5638 54.661V54.661L52.1802 54.9928ZM52.0323 52.8828L51.5909 53.426L52.0323 52.8828ZM49.519 52.7752L49.7665 53.4302L49.779 53.4252L49.519 52.7752ZM48.3363 53.501L47.695 53.7816L48.0747 54.6495L48.7929 54.0316L48.3363 53.501ZM47.7718 52.2108L47.3083 51.6862L46.9261 52.024L47.1305 52.4913L47.7718 52.2108ZM49.1965 51.3909L48.9597 50.7322L48.9564 50.7334L49.1965 51.3909ZM53.3494 51.7672L52.9004 52.3043L53.3494 51.7672ZM53.7526 55.4229L54.3723 55.7485L54.3745 55.7442L53.7526 55.4229ZM52.4624 57.0895L52.9574 57.5845L52.4624 57.0895ZM49.8416 59.7103H49.1416V61.4002L50.3366 60.2053L49.8416 59.7103ZM49.8416 59.2533V58.5533H49.1416V59.2533H49.8416ZM54.5456 59.2533H55.2456V58.5533H54.5456V59.2533ZM54.5456 60.6914V61.3914H55.2456V60.6914H54.5456ZM48.8616 60.6914V59.4146H47.4616V60.6914H48.8616ZM48.6668 59.8991L51.8118 56.6198L50.8013 55.6507L47.6564 58.9301L48.6668 59.8991ZM51.8124 56.6191C52.2329 56.1795 52.5686 55.7479 52.7965 55.3247L51.5638 54.661C51.4154 54.9367 51.1687 55.2667 50.8007 55.6514L51.8124 56.6191ZM52.7965 55.3247C53.035 54.8817 53.1624 54.41 53.1624 53.9176H51.7624C51.7624 54.16 51.7016 54.4051 51.5638 54.661L52.7965 55.3247ZM53.1624 53.9176C53.1624 53.3047 52.9623 52.7365 52.4737 52.3395L51.5909 53.426C51.6758 53.495 51.7624 53.6167 51.7624 53.9176H53.1624ZM52.4737 52.3395C52.0147 51.9665 51.4153 51.8333 50.7824 51.8333V53.2333C51.2426 53.2333 51.4765 53.3331 51.5909 53.426L52.4737 52.3395ZM50.7824 51.8333C50.2553 51.8333 49.7459 51.9306 49.2591 52.1253L49.779 53.4252C50.0986 53.2973 50.4314 53.2333 50.7824 53.2333V51.8333ZM49.2717 52.1204C48.7797 52.3063 48.3161 52.5949 47.8798 52.9704L48.7929 54.0316C49.1271 53.7441 49.452 53.5489 49.7664 53.4301L49.2717 52.1204ZM48.9776 53.2204L48.4132 51.9302L47.1305 52.4913L47.695 53.7816L48.9776 53.2204ZM48.2354 52.7353C48.5451 52.4616 48.9406 52.2295 49.4365 52.0485L48.9564 50.7334C48.3234 50.9645 47.7692 51.279 47.3083 51.6862L48.2354 52.7353ZM49.4332 52.0497C49.9285 51.8717 50.4485 51.7818 50.9974 51.7818V50.3818C50.2919 50.3818 49.6114 50.498 48.9597 50.7322L49.4332 52.0497ZM50.9974 51.7818C51.9245 51.7818 52.5246 51.9901 52.9004 52.3043L53.7984 51.2302C53.0812 50.6305 52.1132 50.3818 50.9974 50.3818V51.7818ZM52.9004 52.3043C53.2566 52.6021 53.4693 53.041 53.4693 53.7295H54.8693C54.8693 52.7155 54.5354 51.8463 53.7984 51.2302L52.9004 52.3043ZM53.4693 53.7295C53.4693 54.2064 53.3584 54.6609 53.1307 55.1016L54.3745 55.7442C54.7024 55.1097 54.8693 54.4353 54.8693 53.7295H53.4693ZM53.133 55.0973C52.8978 55.5449 52.5174 56.0445 51.9674 56.5945L52.9574 57.5845C53.5722 56.9697 54.052 56.3582 54.3723 55.7485L53.133 55.0973ZM51.9674 56.5945L49.3466 59.2153L50.3366 60.2053L52.9574 57.5845L51.9674 56.5945ZM50.5416 59.7103V59.2533H49.1416V59.7103H50.5416ZM49.8416 59.9533H54.5456V58.5533H49.8416V59.9533ZM53.8456 59.2533V60.6914H55.2456V59.2533H53.8456ZM54.5456 59.9914H48.1616V61.3914H54.5456V59.9914Z" fill="#212137" mask="url(#path-31-outside-1_45_2750)"/>
<defs>
<pattern id="pattern0_45_2750" patternContentUnits="objectBoundingBox" width="1" height="1">
<use xlink:href="#image0_45_2750" transform="translate(-3.12684 -1.34808) scale(0.00294985)"/>
</pattern>
<linearGradient id="paint0_linear_45_2750" x1="18.0405" y1="5.99047" x2="15.254" y2="15.2898" gradientUnits="userSpaceOnUse">
<stop stop-color="white" stop-opacity="0.862745"/>
<stop offset="1" stop-color="#C0D5FD"/>
</linearGradient>
<linearGradient id="paint1_linear_45_2750" x1="17.274" y1="13.6472" x2="12.0634" y2="21.8382" gradientUnits="userSpaceOnUse">
<stop stop-color="white" stop-opacity="0.862745"/>
<stop offset="1" stop-color="#C0D5FD"/>
</linearGradient>
<linearGradient id="paint2_linear_45_2750" x1="15.6369" y1="20.607" x2="11.0053" y2="29.1387" gradientUnits="userSpaceOnUse">
<stop stop-color="white" stop-opacity="0.862745"/>
<stop offset="1" stop-color="#C0D5FD"/>
</linearGradient>
<linearGradient id="paint3_linear_45_2750" x1="15.2977" y1="27.5473" x2="11.48" y2="36.473" gradientUnits="userSpaceOnUse">
<stop stop-color="white" stop-opacity="0.862745"/>
<stop offset="1" stop-color="#C0D5FD"/>
</linearGradient>
<linearGradient id="paint4_linear_45_2750" x1="16.1532" y1="33.3155" x2="13.9289" y2="42.7651" gradientUnits="userSpaceOnUse">
<stop stop-color="white" stop-opacity="0.862745"/>
<stop offset="1" stop-color="#C0D5FD"/>
</linearGradient>
<linearGradient id="paint5_linear_45_2750" x1="19.7139" y1="37.413" x2="18.4578" y2="47.0393" gradientUnits="userSpaceOnUse">
<stop stop-color="white" stop-opacity="0.862745"/>
<stop offset="1" stop-color="#C0D5FD"/>
</linearGradient>
<linearGradient id="paint6_linear_45_2750" x1="7.28489" y1="8.92043" x2="11.2054" y2="17.8015" gradientUnits="userSpaceOnUse">
<stop stop-color="white" stop-opacity="0.862745"/>
<stop offset="1" stop-color="#C0D5FD"/>
</linearGradient>
<linearGradient id="paint7_linear_45_2750" x1="2.09636" y1="16.6404" x2="9.18173" y2="23.2767" gradientUnits="userSpaceOnUse">
<stop stop-color="white" stop-opacity="0.862745"/>
<stop offset="1" stop-color="#C0D5FD"/>
</linearGradient>
<linearGradient id="paint8_linear_45_2750" x1="0.119627" y1="26.1394" x2="9.26943" y2="29.3835" gradientUnits="userSpaceOnUse">
<stop stop-color="white" stop-opacity="0.862745"/>
<stop offset="1" stop-color="#C0D5FD"/>
</linearGradient>
<linearGradient id="paint9_linear_45_2750" x1="-0.0798523" y1="34.2897" x2="9.5281" y2="35.679" gradientUnits="userSpaceOnUse">
<stop stop-color="white" stop-opacity="0.862745"/>
<stop offset="1" stop-color="#C0D5FD"/>
</linearGradient>
<linearGradient id="paint10_linear_45_2750" x1="2.19805" y1="42.4406" x2="11.9045" y2="42.2725" gradientUnits="userSpaceOnUse">
<stop stop-color="white" stop-opacity="0.862745"/>
<stop offset="1" stop-color="#C0D5FD"/>
</linearGradient>
<linearGradient id="paint11_linear_45_2750" x1="7.417" y1="50.7335" x2="16.2497" y2="46.7053" gradientUnits="userSpaceOnUse">
<stop stop-color="white" stop-opacity="0.862745"/>
<stop offset="1" stop-color="#C0D5FD"/>
</linearGradient>
<linearGradient id="paint12_linear_45_2750" x1="7.417" y1="50.734" x2="16.2497" y2="46.7058" gradientUnits="userSpaceOnUse">
<stop stop-color="white" stop-opacity="0.862745"/>
<stop offset="1" stop-color="#C0D5FD"/>
</linearGradient>
<linearGradient id="paint13_linear_45_2750" x1="14.7582" y1="56.3927" x2="21.2481" y2="49.173" gradientUnits="userSpaceOnUse">
<stop stop-color="white" stop-opacity="0.862745"/>
<stop offset="1" stop-color="#C0D5FD"/>
</linearGradient>
<linearGradient id="paint14_linear_45_2750" x1="85.1851" y1="5.99047" x2="87.9716" y2="15.2898" gradientUnits="userSpaceOnUse">
<stop stop-color="white" stop-opacity="0.862745"/>
<stop offset="1" stop-color="#C0D5FD"/>
</linearGradient>
<linearGradient id="paint15_linear_45_2750" x1="85.9516" y1="13.6472" x2="91.1622" y2="21.8382" gradientUnits="userSpaceOnUse">
<stop stop-color="white" stop-opacity="0.862745"/>
<stop offset="1" stop-color="#C0D5FD"/>
</linearGradient>
<linearGradient id="paint16_linear_45_2750" x1="87.5887" y1="20.607" x2="92.2203" y2="29.1387" gradientUnits="userSpaceOnUse">
<stop stop-color="white" stop-opacity="0.862745"/>
<stop offset="1" stop-color="#C0D5FD"/>
</linearGradient>
<linearGradient id="paint17_linear_45_2750" x1="87.9279" y1="27.5473" x2="91.7455" y2="36.473" gradientUnits="userSpaceOnUse">
<stop stop-color="white" stop-opacity="0.862745"/>
<stop offset="1" stop-color="#C0D5FD"/>
</linearGradient>
<linearGradient id="paint18_linear_45_2750" x1="87.0724" y1="33.3155" x2="89.2967" y2="42.7651" gradientUnits="userSpaceOnUse">
<stop stop-color="white" stop-opacity="0.862745"/>
<stop offset="1" stop-color="#C0D5FD"/>
</linearGradient>
<linearGradient id="paint19_linear_45_2750" x1="83.5116" y1="37.413" x2="84.7678" y2="47.0393" gradientUnits="userSpaceOnUse">
<stop stop-color="white" stop-opacity="0.862745"/>
<stop offset="1" stop-color="#C0D5FD"/>
</linearGradient>
<linearGradient id="paint20_linear_45_2750" x1="95.9407" y1="8.92043" x2="92.0202" y2="17.8015" gradientUnits="userSpaceOnUse">
<stop stop-color="white" stop-opacity="0.862745"/>
<stop offset="1" stop-color="#C0D5FD"/>
</linearGradient>
<linearGradient id="paint21_linear_45_2750" x1="101.129" y1="16.6404" x2="94.0439" y2="23.2767" gradientUnits="userSpaceOnUse">
<stop stop-color="white" stop-opacity="0.862745"/>
<stop offset="1" stop-color="#C0D5FD"/>
</linearGradient>
<linearGradient id="paint22_linear_45_2750" x1="103.106" y1="26.1394" x2="93.9562" y2="29.3835" gradientUnits="userSpaceOnUse">
<stop stop-color="white" stop-opacity="0.862745"/>
<stop offset="1" stop-color="#C0D5FD"/>
</linearGradient>
<linearGradient id="paint23_linear_45_2750" x1="103.305" y1="34.2897" x2="93.6975" y2="35.679" gradientUnits="userSpaceOnUse">
<stop stop-color="white" stop-opacity="0.862745"/>
<stop offset="1" stop-color="#C0D5FD"/>
</linearGradient>
<linearGradient id="paint24_linear_45_2750" x1="101.028" y1="42.4406" x2="91.3211" y2="42.2725" gradientUnits="userSpaceOnUse">
<stop stop-color="white" stop-opacity="0.862745"/>
<stop offset="1" stop-color="#C0D5FD"/>
</linearGradient>
<linearGradient id="paint25_linear_45_2750" x1="95.8086" y1="50.7335" x2="86.9759" y2="46.7053" gradientUnits="userSpaceOnUse">
<stop stop-color="white" stop-opacity="0.862745"/>
<stop offset="1" stop-color="#C0D5FD"/>
</linearGradient>
<linearGradient id="paint26_linear_45_2750" x1="95.8086" y1="50.734" x2="86.9759" y2="46.7058" gradientUnits="userSpaceOnUse">
<stop stop-color="white" stop-opacity="0.862745"/>
<stop offset="1" stop-color="#C0D5FD"/>
</linearGradient>
<linearGradient id="paint27_linear_45_2750" x1="88.4674" y1="56.3927" x2="81.9775" y2="49.173" gradientUnits="userSpaceOnUse">
<stop stop-color="white" stop-opacity="0.862745"/>
<stop offset="1" stop-color="#C0D5FD"/>
</linearGradient>
<linearGradient id="paint28_linear_45_2750" x1="41.037" y1="45.9836" x2="46.074" y2="68.2477" gradientUnits="userSpaceOnUse">
<stop stop-color="#FFF7CE"/>
<stop offset="1" stop-color="#FADD44"/>
</linearGradient>
<linearGradient id="paint29_linear_45_2750" x1="41.037" y1="45.9836" x2="46.074" y2="68.2477" gradientUnits="userSpaceOnUse">
<stop stop-color="white" stop-opacity="0.862745"/>
<stop offset="1" stop-color="#C0D5FD"/>
</linearGradient>
</defs>
</svg>
