<svg width="104" height="66" viewBox="0 0 104 66" fill="none" xmlns="http://www.w3.org/2000/svg" xmlns:xlink="http://www.w3.org/1999/xlink">
<path d="M18.4578 12.3878C17.3124 13.6964 14.7124 15.1294 13.7725 14.3067C12.8326 13.484 13.9088 10.7172 15.0542 9.40863C16.1996 8.1001 18.8381 6.62307 19.778 7.44576C20.7179 8.26845 19.6032 11.0793 18.4578 12.3878Z" fill="url(#paint0_linear_43_1368)"/>
<path d="M15.8837 19.9097C14.4256 20.8574 11.5338 21.5293 10.8531 20.482C10.1724 19.4347 11.9605 17.0648 13.4186 16.1171C14.8767 15.1694 17.8175 14.4657 18.4982 15.513C19.1789 16.5603 17.3417 18.962 15.8837 19.9097Z" fill="url(#paint1_linear_43_1368)"/>
<path d="M14.6962 26.9502C13.3072 27.9965 10.4688 28.8668 9.71731 27.8691C8.9658 26.8714 10.5857 24.3835 11.9748 23.3372C13.3638 22.2909 16.2489 21.3854 17.0004 22.3831C17.7519 23.3809 16.0853 25.9039 14.6962 26.9502Z" fill="url(#paint2_linear_43_1368)"/>
<path d="M14.9692 33.9497C13.6835 35.1207 10.9384 36.2513 10.0973 35.3278C9.25624 34.4044 10.6377 31.7765 11.9233 30.6055C13.209 29.4346 15.9973 28.2646 16.8384 29.188C17.6795 30.1115 16.2548 32.7787 14.9692 33.9497Z" fill="url(#paint3_linear_43_1368)"/>
<path d="M16.9645 39.6761C15.8996 41.0509 13.3901 42.6371 12.4026 41.8722C11.4151 41.1073 12.3236 38.2809 13.3885 36.9061C14.4535 35.5313 16.9988 33.8989 17.9863 34.6638C18.9737 35.4287 18.0295 38.3013 16.9645 39.6761Z" fill="url(#paint4_linear_43_1368)"/>
<path d="M21.1845 43.6578C20.2642 45.1333 17.9282 46.9655 16.8683 46.3045C15.8085 45.6435 16.4262 42.7397 17.3464 41.2641C18.2667 39.7886 20.6336 37.9068 21.6935 38.5678C22.7533 39.2288 22.1047 42.1822 21.1845 43.6578Z" fill="url(#paint5_linear_43_1368)"/>
<path d="M11.8812 13.4682C11.8601 15.2071 10.8137 17.9853 9.56468 17.9702C8.3157 17.955 7.33713 15.1521 7.35827 13.4132C7.37942 11.6743 8.42656 8.8376 9.67555 8.85278C10.9245 8.86797 11.9024 11.7293 11.8812 13.4682Z" fill="url(#paint6_linear_43_1368)"/>
<path d="M8.18157 19.0096C8.8431 20.6179 8.9683 23.5841 7.81313 24.0592C6.65796 24.5344 4.65987 22.3386 3.99833 20.7303C3.3368 19.1221 3.18937 16.1018 4.34453 15.6267C5.4997 15.1515 7.52003 17.4014 8.18157 19.0096Z" fill="url(#paint7_linear_43_1368)"/>
<path d="M6.721 25.8578C7.97115 27.0666 9.27355 29.7345 8.40528 30.6325C7.53702 31.5304 4.82688 30.3184 3.57673 29.1096C2.32659 27.9007 0.982165 25.1922 1.85043 24.2943C2.7187 23.3963 5.47085 24.649 6.721 25.8578Z" fill="url(#paint8_linear_43_1368)"/>
<path d="M6.37602 32.717C7.8387 33.6576 9.63837 36.0187 8.96278 37.0693C8.28718 38.1199 5.39216 37.4622 3.92948 36.5216C2.4668 35.581 0.617961 33.1882 1.29355 32.1376C1.96915 31.087 4.91334 31.7764 6.37602 32.717Z" fill="url(#paint9_linear_43_1368)"/>
<path d="M8.3492 39.8513C9.94369 40.5454 12.0984 42.5877 11.5999 43.733C11.1013 44.8783 8.13833 44.6928 6.54384 43.9987C4.94935 43.3047 2.74103 41.239 3.23956 40.0938C3.7381 38.9485 6.75471 39.1573 8.3492 39.8513Z" fill="url(#paint10_linear_43_1368)"/>
<path d="M12.0999 45.8884C13.8389 45.8884 16.6297 46.901 16.6297 48.1501C16.6297 49.3992 13.8389 50.4117 12.0999 50.4117C10.3609 50.4117 7.51169 49.3992 7.51169 48.1501C7.51169 46.901 10.3609 45.8884 12.0999 45.8884Z" fill="url(#paint11_linear_43_1368)"/>
<path d="M12.0999 45.8889C13.8389 45.8889 16.6297 46.9015 16.6297 48.1506C16.6297 49.3997 13.8389 50.4122 12.0999 50.4122C10.3609 50.4122 7.51169 49.3997 7.51169 48.1506C7.51169 46.9015 10.3609 45.8889 12.0999 45.8889Z" fill="url(#paint12_linear_43_1368)"/>
<path d="M17.1937 50.0649C18.7881 49.3706 21.7511 49.1848 22.2498 50.33C22.7485 51.4752 20.594 53.5178 18.9996 54.2121C17.4053 54.9064 14.3887 55.1156 13.89 53.9704C13.3913 52.8252 15.5993 50.7592 17.1937 50.0649Z" fill="url(#paint13_linear_43_1368)"/>
<rect x="25.4736" y="4.55469" width="52" height="52" rx="26" fill="url(#pattern0_43_1368)"/>
<path d="M84.7678 12.3878C85.9131 13.6964 88.5132 15.1294 89.4531 14.3067C90.393 13.484 89.3168 10.7172 88.1714 9.40863C87.026 8.1001 84.3875 6.62307 83.4476 7.44576C82.5077 8.26845 83.6224 11.0793 84.7678 12.3878Z" fill="url(#paint14_linear_43_1368)"/>
<path d="M87.3419 19.9097C88.8 20.8574 91.6918 21.5293 92.3725 20.482C93.0532 19.4347 91.2651 17.0648 89.807 16.1171C88.3489 15.1694 85.4081 14.4657 84.7274 15.513C84.0467 16.5603 85.8838 18.962 87.3419 19.9097Z" fill="url(#paint15_linear_43_1368)"/>
<path d="M88.5293 26.9502C89.9184 27.9965 92.7568 28.8668 93.5083 27.8691C94.2598 26.8714 92.6398 24.3835 91.2508 23.3372C89.8618 22.2909 86.9767 21.3854 86.2252 22.3831C85.4737 23.3809 87.1403 25.9039 88.5293 26.9502Z" fill="url(#paint16_linear_43_1368)"/>
<path d="M88.2564 33.9497C89.5421 35.1207 92.2872 36.2513 93.1283 35.3278C93.9693 34.4044 92.5879 31.7765 91.3023 30.6055C90.0166 29.4346 87.2283 28.2646 86.3872 29.188C85.5461 30.1115 86.9708 32.7787 88.2564 33.9497Z" fill="url(#paint17_linear_43_1368)"/>
<path d="M86.2611 39.6761C87.326 41.0509 89.8355 42.6371 90.823 41.8722C91.8104 41.1073 90.902 38.2809 89.837 36.9061C88.7721 35.5313 86.2268 33.8989 85.2393 34.6638C84.2518 35.4287 85.1961 38.3013 86.2611 39.6761Z" fill="url(#paint18_linear_43_1368)"/>
<path d="M82.0411 43.6578C82.9614 45.1333 85.2974 46.9655 86.3572 46.3045C87.4171 45.6435 86.7994 42.7397 85.8792 41.2641C84.9589 39.7886 82.592 37.9068 81.5321 38.5678C80.4723 39.2288 81.1209 42.1822 82.0411 43.6578Z" fill="url(#paint19_linear_43_1368)"/>
<path d="M91.3443 13.4682C91.3655 15.2071 92.4119 17.9853 93.6609 17.9702C94.9099 17.955 95.8885 15.1521 95.8673 13.4132C95.8462 11.6743 94.799 8.8376 93.55 8.85278C92.3011 8.86797 91.3232 11.7293 91.3443 13.4682Z" fill="url(#paint20_linear_43_1368)"/>
<path d="M95.044 19.0096C94.3825 20.6179 94.2573 23.5841 95.4125 24.0592C96.5676 24.5344 98.5657 22.3386 99.2273 20.7303C99.8888 19.1221 100.036 16.1018 98.8811 15.6267C97.7259 15.1515 95.7056 17.4014 95.044 19.0096Z" fill="url(#paint21_linear_43_1368)"/>
<path d="M96.5046 25.8578C95.2544 27.0666 93.952 29.7345 94.8203 30.6325C95.6886 31.5304 98.3987 30.3184 99.6489 29.1096C100.899 27.9007 102.243 25.1922 101.375 24.2943C100.507 23.3963 97.7547 24.649 96.5046 25.8578Z" fill="url(#paint22_linear_43_1368)"/>
<path d="M96.8496 32.717C95.3869 33.6576 93.5872 36.0187 94.2628 37.0693C94.9384 38.1199 97.8334 37.4622 99.2961 36.5216C100.759 35.581 102.608 33.1882 101.932 32.1376C101.256 31.087 98.3122 31.7764 96.8496 32.717Z" fill="url(#paint23_linear_43_1368)"/>
<path d="M94.8764 39.8513C93.2819 40.5454 91.1272 42.5877 91.6257 43.733C92.1242 44.8783 95.0873 44.6928 96.6817 43.9987C98.2762 43.3047 100.485 41.239 99.986 40.0938C99.4875 38.9485 96.4709 39.1573 94.8764 39.8513Z" fill="url(#paint24_linear_43_1368)"/>
<path d="M91.1256 45.8884C89.3866 45.8884 86.5958 46.901 86.5958 48.1501C86.5958 49.3992 89.3866 50.4117 91.1256 50.4117C92.8647 50.4117 95.7139 49.3992 95.7139 48.1501C95.7139 46.901 92.8647 45.8884 91.1256 45.8884Z" fill="url(#paint25_linear_43_1368)"/>
<path d="M91.1256 45.8889C89.3866 45.8889 86.5958 46.9015 86.5958 48.1506C86.5958 49.3997 89.3866 50.4122 91.1256 50.4122C92.8647 50.4122 95.7139 49.3997 95.7139 48.1506C95.7139 46.9015 92.8647 45.8889 91.1256 45.8889Z" fill="url(#paint26_linear_43_1368)"/>
<path d="M86.0319 50.0649C84.4375 49.3706 81.4745 49.1848 80.9758 50.33C80.4771 51.4752 82.6315 53.5178 84.2259 54.2121C85.8203 54.9064 88.8369 55.1156 89.3356 53.9704C89.8343 52.8252 87.6263 50.7592 86.0319 50.0649Z" fill="url(#paint27_linear_43_1368)"/>
<rect x="41.6133" y="46" width="20" height="20" rx="10" fill="black"/>
<rect x="41.6133" y="46" width="20" height="20" rx="10" fill="url(#paint28_linear_43_1368)"/>
<mask id="path-31-outside-1_43_1368" maskUnits="userSpaceOnUse" x="47.1133" y="49.5" width="9" height="12" fill="black">
<rect fill="white" x="47.1133" y="49.5" width="9" height="12"/>
<path d="M48.6051 60.5V59.0619H50.7824V52.4763H51.6157L48.8202 54.1429V52.5032L51.2797 51.0248H52.5162V59.0619H54.559V60.5H48.6051Z"/>
</mask>
<path d="M48.6051 60.5V59.0619H50.7824V52.4763H51.6157L48.8202 54.1429V52.5032L51.2797 51.0248H52.5162V59.0619H54.559V60.5H48.6051Z" fill="#212137"/>
<path d="M48.6051 60.5H47.9051V61.2H48.6051V60.5ZM48.6051 59.0619V58.3619H47.9051V59.0619H48.6051ZM50.7824 59.0619V59.7619H51.4824V59.0619H50.7824ZM50.7824 52.4763V51.7763H50.0824V52.4763H50.7824ZM51.6157 52.4763L51.9741 53.0776L54.1569 51.7763H51.6157V52.4763ZM48.8202 54.1429H48.1202V55.3751L49.1786 54.7441L48.8202 54.1429ZM48.8202 52.5032L48.4595 51.9032L48.1202 52.1072V52.5032H48.8202ZM51.2797 51.0248V50.3248H51.0855L50.9191 50.4248L51.2797 51.0248ZM52.5162 51.0248H53.2162V50.3248H52.5162V51.0248ZM52.5162 59.0619H51.8162V59.7619H52.5162V59.0619ZM54.559 59.0619H55.259V58.3619H54.559V59.0619ZM54.559 60.5V61.2H55.259V60.5H54.559ZM49.3051 60.5V59.0619H47.9051V60.5H49.3051ZM48.6051 59.7619H50.7824V58.3619H48.6051V59.7619ZM51.4824 59.0619V52.4763H50.0824V59.0619H51.4824ZM50.7824 53.1763H51.6157V51.7763H50.7824V53.1763ZM51.2572 51.8751L48.4617 53.5416L49.1786 54.7441L51.9741 53.0776L51.2572 51.8751ZM49.5202 54.1429V52.5032H48.1202V54.1429H49.5202ZM49.1808 53.1032L51.6403 51.6248L50.9191 50.4248L48.4595 51.9032L49.1808 53.1032ZM51.2797 51.7248H52.5162V50.3248H51.2797V51.7248ZM51.8162 51.0248V59.0619H53.2162V51.0248H51.8162ZM52.5162 59.7619H54.559V58.3619H52.5162V59.7619ZM53.859 59.0619V60.5H55.259V59.0619H53.859ZM54.559 59.8H48.6051V61.2H54.559V59.8Z" fill="#212137" mask="url(#path-31-outside-1_43_1368)"/>
<defs>
<pattern id="pattern0_43_1368" patternContentUnits="objectBoundingBox" width="1" height="1">
<use xlink:href="#image0_43_1368" transform="translate(-3.12684 -1.34808) scale(0.00294985)"/>
</pattern>
<linearGradient id="paint0_linear_43_1368" x1="18.0405" y1="5.79906" x2="15.254" y2="15.0984" gradientUnits="userSpaceOnUse">
<stop stop-color="#FFF7CE"/>
<stop offset="1" stop-color="#FADD44"/>
</linearGradient>
<linearGradient id="paint1_linear_43_1368" x1="17.274" y1="13.4558" x2="12.0634" y2="21.6468" gradientUnits="userSpaceOnUse">
<stop stop-color="#FFF7CE"/>
<stop offset="1" stop-color="#FADD44"/>
</linearGradient>
<linearGradient id="paint2_linear_43_1368" x1="15.6369" y1="20.4156" x2="11.0053" y2="28.9473" gradientUnits="userSpaceOnUse">
<stop stop-color="#FFF7CE"/>
<stop offset="1" stop-color="#FADD44"/>
</linearGradient>
<linearGradient id="paint3_linear_43_1368" x1="15.2977" y1="27.3559" x2="11.48" y2="36.2816" gradientUnits="userSpaceOnUse">
<stop stop-color="#FFF7CE"/>
<stop offset="1" stop-color="#FADD44"/>
</linearGradient>
<linearGradient id="paint4_linear_43_1368" x1="16.1532" y1="33.1241" x2="13.9289" y2="42.5737" gradientUnits="userSpaceOnUse">
<stop stop-color="#FFF7CE"/>
<stop offset="1" stop-color="#FADD44"/>
</linearGradient>
<linearGradient id="paint5_linear_43_1368" x1="19.7139" y1="37.2216" x2="18.4578" y2="46.8479" gradientUnits="userSpaceOnUse">
<stop stop-color="#FFF7CE"/>
<stop offset="1" stop-color="#FADD44"/>
</linearGradient>
<linearGradient id="paint6_linear_43_1368" x1="7.28489" y1="8.72902" x2="11.2054" y2="17.61" gradientUnits="userSpaceOnUse">
<stop stop-color="#FFF7CE"/>
<stop offset="1" stop-color="#FADD44"/>
</linearGradient>
<linearGradient id="paint7_linear_43_1368" x1="2.09636" y1="16.449" x2="9.18173" y2="23.0853" gradientUnits="userSpaceOnUse">
<stop stop-color="#FFF7CE"/>
<stop offset="1" stop-color="#FADD44"/>
</linearGradient>
<linearGradient id="paint8_linear_43_1368" x1="0.119627" y1="25.948" x2="9.26943" y2="29.1921" gradientUnits="userSpaceOnUse">
<stop stop-color="#FFF7CE"/>
<stop offset="1" stop-color="#FADD44"/>
</linearGradient>
<linearGradient id="paint9_linear_43_1368" x1="-0.0798523" y1="34.0983" x2="9.5281" y2="35.4876" gradientUnits="userSpaceOnUse">
<stop stop-color="#FFF7CE"/>
<stop offset="1" stop-color="#FADD44"/>
</linearGradient>
<linearGradient id="paint10_linear_43_1368" x1="2.19805" y1="42.2492" x2="11.9045" y2="42.0811" gradientUnits="userSpaceOnUse">
<stop stop-color="#FFF7CE"/>
<stop offset="1" stop-color="#FADD44"/>
</linearGradient>
<linearGradient id="paint11_linear_43_1368" x1="7.417" y1="50.5421" x2="16.2497" y2="46.5139" gradientUnits="userSpaceOnUse">
<stop stop-color="#FFF7CE"/>
<stop offset="1" stop-color="#FADD44"/>
</linearGradient>
<linearGradient id="paint12_linear_43_1368" x1="7.417" y1="50.5426" x2="16.2497" y2="46.5144" gradientUnits="userSpaceOnUse">
<stop stop-color="#FFF7CE"/>
<stop offset="1" stop-color="#FADD44"/>
</linearGradient>
<linearGradient id="paint13_linear_43_1368" x1="14.7582" y1="56.2013" x2="21.2481" y2="48.9816" gradientUnits="userSpaceOnUse">
<stop stop-color="#FFF7CE"/>
<stop offset="1" stop-color="#FADD44"/>
</linearGradient>
<linearGradient id="paint14_linear_43_1368" x1="85.1851" y1="5.79906" x2="87.9716" y2="15.0984" gradientUnits="userSpaceOnUse">
<stop stop-color="#FFF7CE"/>
<stop offset="1" stop-color="#FADD44"/>
</linearGradient>
<linearGradient id="paint15_linear_43_1368" x1="85.9516" y1="13.4558" x2="91.1622" y2="21.6468" gradientUnits="userSpaceOnUse">
<stop stop-color="#FFF7CE"/>
<stop offset="1" stop-color="#FADD44"/>
</linearGradient>
<linearGradient id="paint16_linear_43_1368" x1="87.5887" y1="20.4156" x2="92.2203" y2="28.9473" gradientUnits="userSpaceOnUse">
<stop stop-color="#FFF7CE"/>
<stop offset="1" stop-color="#FADD44"/>
</linearGradient>
<linearGradient id="paint17_linear_43_1368" x1="87.9279" y1="27.3559" x2="91.7455" y2="36.2816" gradientUnits="userSpaceOnUse">
<stop stop-color="#FFF7CE"/>
<stop offset="1" stop-color="#FADD44"/>
</linearGradient>
<linearGradient id="paint18_linear_43_1368" x1="87.0724" y1="33.1241" x2="89.2967" y2="42.5737" gradientUnits="userSpaceOnUse">
<stop stop-color="#FFF7CE"/>
<stop offset="1" stop-color="#FADD44"/>
</linearGradient>
<linearGradient id="paint19_linear_43_1368" x1="83.5116" y1="37.2216" x2="84.7678" y2="46.8479" gradientUnits="userSpaceOnUse">
<stop stop-color="#FFF7CE"/>
<stop offset="1" stop-color="#FADD44"/>
</linearGradient>
<linearGradient id="paint20_linear_43_1368" x1="95.9407" y1="8.72902" x2="92.0202" y2="17.61" gradientUnits="userSpaceOnUse">
<stop stop-color="#FFF7CE"/>
<stop offset="1" stop-color="#FADD44"/>
</linearGradient>
<linearGradient id="paint21_linear_43_1368" x1="101.129" y1="16.449" x2="94.0439" y2="23.0853" gradientUnits="userSpaceOnUse">
<stop stop-color="#FFF7CE"/>
<stop offset="1" stop-color="#FADD44"/>
</linearGradient>
<linearGradient id="paint22_linear_43_1368" x1="103.106" y1="25.948" x2="93.9562" y2="29.1921" gradientUnits="userSpaceOnUse">
<stop stop-color="#FFF7CE"/>
<stop offset="1" stop-color="#FADD44"/>
</linearGradient>
<linearGradient id="paint23_linear_43_1368" x1="103.305" y1="34.0983" x2="93.6975" y2="35.4876" gradientUnits="userSpaceOnUse">
<stop stop-color="#FFF7CE"/>
<stop offset="1" stop-color="#FADD44"/>
</linearGradient>
<linearGradient id="paint24_linear_43_1368" x1="101.028" y1="42.2492" x2="91.3211" y2="42.0811" gradientUnits="userSpaceOnUse">
<stop stop-color="#FFF7CE"/>
<stop offset="1" stop-color="#FADD44"/>
</linearGradient>
<linearGradient id="paint25_linear_43_1368" x1="95.8086" y1="50.5421" x2="86.9759" y2="46.5139" gradientUnits="userSpaceOnUse">
<stop stop-color="#FFF7CE"/>
<stop offset="1" stop-color="#FADD44"/>
</linearGradient>
<linearGradient id="paint26_linear_43_1368" x1="95.8086" y1="50.5426" x2="86.9759" y2="46.5144" gradientUnits="userSpaceOnUse">
<stop stop-color="#FFF7CE"/>
<stop offset="1" stop-color="#FADD44"/>
</linearGradient>
<linearGradient id="paint27_linear_43_1368" x1="88.4674" y1="56.2013" x2="81.9775" y2="48.9816" gradientUnits="userSpaceOnUse">
<stop stop-color="#FFF7CE"/>
<stop offset="1" stop-color="#FADD44"/>
</linearGradient>
<linearGradient id="paint28_linear_43_1368" x1="41.037" y1="45.7922" x2="46.074" y2="68.0563" gradientUnits="userSpaceOnUse">
<stop stop-color="#FFF7CE"/>
<stop offset="1" stop-color="#FADD44"/>
</linearGradient>
</defs>
</svg>
