<svg width="15" height="16" viewBox="0 0 15 16" fill="none" xmlns="http://www.w3.org/2000/svg">
<path d="M11.4191 11.8008C11.4191 13.4192 9.08673 14.7312 6.20958 14.7312C3.33243 14.7312 1.00004 13.4192 1.00004 11.8008C1.00004 11.38 1 10.5044 1 10.5044C1.80813 9.47502 9.29011 10.5044 11.4191 10.5044C11.4191 10.5044 11.4191 10.1824 11.4191 11.8008Z" fill="#19424B" stroke="#6AFFA6" stroke-width="1.43942"/>
<ellipse cx="6.20954" cy="10.5729" rx="5.20954" ry="2.93037" fill="#19424B" stroke="#6AFFA6" stroke-width="1.43942"/>
<path d="M13.6672 8.41017C13.6672 10.0286 11.3348 11.3405 8.45762 11.3405C5.58048 11.3405 3.24809 10.0286 3.24809 8.41017C3.24809 7.98934 3.24805 7.11373 3.24805 7.11373C4.05617 6.0844 11.5382 7.11373 13.6672 7.11373C13.6672 7.11373 13.6672 6.79177 13.6672 8.41017Z" fill="#19424B" stroke="#6AFFA6" stroke-width="1.43942"/>
<ellipse cx="8.45759" cy="7.11787" rx="5.20954" ry="2.93037" fill="#19424B" stroke="#6AFFA6" stroke-width="1.43942"/>
<path d="M12.6262 5.07423C12.6262 6.69263 10.2938 8.0046 7.41661 8.0046C4.53946 8.0046 2.20707 6.69263 2.20707 5.07423C2.20707 4.6534 2.20703 3.77779 2.20703 3.77779C3.01516 2.74846 10.4971 3.77779 12.6262 3.77779C12.6262 3.77779 12.6262 3.45583 12.6262 5.07423Z" fill="#19424B" stroke="#6AFFA6" stroke-width="1.43942"/>
<ellipse cx="7.41657" cy="3.72529" rx="5.20954" ry="2.93037" fill="#19424B" stroke="#6AFFA6" stroke-width="1.43942"/>
</svg>
