<svg width="177" height="37" viewBox="0 0 177 37" fill="none" xmlns="http://www.w3.org/2000/svg">
<path d="M12.9483 0C11.6582 0 10.6608 0.316886 9.89824 0.818529C9.13845 1.31838 8.64194 1.9818 8.31878 2.63078C8.01101 3.24885 7.85641 3.86137 7.77814 4.32881C4.8303 4.44355 2.47487 6.84938 2.47487 9.79899C2.47487 11.2489 3.04398 12.5673 3.97282 13.5469C1.69391 14.0724 0 16.0949 0 18.5153C0 20.9291 1.68471 22.9472 3.95425 23.4794C3.04006 24.4562 2.48105 25.7641 2.48105 27.201C2.48105 30.1506 4.83648 32.5565 7.78432 32.6712C7.86259 33.1386 8.01719 33.7512 8.32496 34.3692C8.64812 35.0182 9.14462 35.6816 9.90441 36.1815C10.6669 36.6831 11.6644 37 12.9545 37C14.2379 37 15.2356 36.7067 16.0047 36.2423C16.7726 35.7787 17.2853 35.161 17.6256 34.5518C17.9645 33.9452 18.1346 33.3435 18.2207 32.8969C18.2639 32.6726 18.2865 32.4844 18.2984 32.3502C18.3043 32.283 18.3076 32.2291 18.3093 32.1907C18.3102 32.1714 18.3108 32.1561 18.3111 32.1448C18.3112 32.1392 18.3113 32.1346 18.3114 32.131L18.3115 32.1236L18.3115 28.0329H21.5825C22.1603 28.0329 22.6256 28.4976 22.6256 29.0666V32.1732C21.6049 32.3992 20.842 33.3023 20.842 34.382C20.842 35.6319 21.8643 36.6452 23.1255 36.6452C24.3867 36.6452 25.409 35.6319 25.409 34.382C25.409 33.2979 24.64 32.3919 23.613 32.1705V29.0666C23.613 27.9597 22.7082 27.0542 21.5825 27.0542H17.6792L17.6758 27.0542L17.6653 27.0542H17.324V27.0669C16.543 27.1237 15.7324 27.3799 15.087 27.9847C14.3377 28.6869 13.8864 29.7881 13.8864 31.3665C13.8864 31.6367 14.1075 31.8558 14.3801 31.8558C14.6528 31.8558 14.8739 31.6367 14.8739 31.3665C14.8739 29.9722 15.2681 29.1619 15.7655 28.6958C16.1864 28.3014 16.7346 28.1032 17.324 28.0487V32.1146L17.324 32.1147L17.324 32.1181C17.3238 32.1235 17.3235 32.1328 17.3229 32.1457C17.3217 32.1716 17.3193 32.212 17.3147 32.2649C17.3053 32.3709 17.2869 32.5259 17.2508 32.7133C17.1781 33.0901 17.0362 33.5864 16.7617 34.0778C16.4887 34.5665 16.0869 35.0467 15.491 35.4066C14.8963 35.7656 14.0811 36.0213 12.9545 36.0213C11.8345 36.0213 11.0321 35.7487 10.4505 35.3661C9.86623 34.9817 9.47439 34.4661 9.21047 33.9361C8.94547 33.4039 8.81398 32.8657 8.74958 32.4562C8.71756 32.2526 8.70263 32.0841 8.69569 31.9683C8.69223 31.9105 8.69077 31.8662 8.69017 31.8375C8.68987 31.8231 8.68978 31.8127 8.68976 31.8066L8.68976 31.8026L8.68976 31.8005V31.8003L8.68977 31.7999L8.6898 31.7978V31.7947C8.6898 26.7257 12.6215 23.2741 16.5464 23.2741H27.7111C28.1954 23.2741 28.5888 23.6501 28.6111 24.1245C27.5632 24.3299 26.773 25.2458 26.773 26.3447C26.773 27.5946 27.7953 28.6079 29.0565 28.6079C30.3177 28.6079 31.34 27.5946 31.34 26.3447C31.34 25.2802 30.5985 24.3874 29.5995 24.1459C29.588 23.1209 28.7481 22.2954 27.7111 22.2954H16.5464C12.082 22.2954 7.75833 26.1581 7.70286 31.687C5.33892 31.5329 3.46853 29.5828 3.46853 27.201C3.46853 24.7188 5.50015 22.7053 8.00475 22.7053C8.15964 22.7053 8.30706 22.711 8.45014 22.7267C8.72115 22.7566 8.96527 22.563 8.99538 22.2944C9.02549 22.0258 8.8302 21.7839 8.55918 21.754C8.36899 21.7331 8.18314 21.7266 8.00475 21.7266C6.87913 21.7266 5.832 22.0605 4.95874 22.6338C2.74563 22.5365 0.987477 20.7331 0.987477 18.5153C0.987477 16.2846 2.76609 14.4732 4.99731 14.3953C5.8615 14.9508 6.89212 15.2734 7.99857 15.2734C8.17696 15.2734 8.36281 15.2669 8.55301 15.246C8.82402 15.2161 9.01931 14.9742 8.9892 14.7056C8.95909 14.437 8.71497 14.2435 8.44396 14.2733C8.30088 14.2891 8.15346 14.2948 7.99857 14.2948C5.49398 14.2948 3.46235 12.2813 3.46235 9.79899C3.46235 7.41726 5.33274 5.46707 7.69668 5.31301C7.75215 10.8419 12.0758 14.7046 16.5402 14.7046H27.7111C28.7465 14.7046 29.5855 13.8816 29.5994 12.8587C30.5954 12.6151 31.3339 11.7237 31.3339 10.6614C31.3339 9.4115 30.3115 8.39824 29.0504 8.39824C27.7892 8.39824 26.7668 9.4115 26.7668 10.6614C26.7668 11.7623 27.5599 12.6796 28.6108 12.8827C28.5848 13.3537 28.193 13.7259 27.7111 13.7259H16.5402C12.6153 13.7259 8.68362 10.2743 8.68362 5.20536V5.20219L8.68359 5.2001L8.68359 5.19974V5.1995L8.68358 5.19783L8.68359 5.19347C8.68361 5.1873 8.68369 5.17687 8.68399 5.16253C8.6846 5.13384 8.68605 5.0895 8.68951 5.03171C8.69645 4.91597 8.71139 4.74738 8.7434 4.54381C8.8078 4.13431 8.9393 3.59608 9.20429 3.06391C9.46821 2.5339 9.86005 2.01829 10.4444 1.63389C11.0259 1.25129 11.8283 0.978674 12.9483 0.978674C14.0749 0.978674 14.8901 1.23438 15.4848 1.59345C16.0807 1.95328 16.4825 2.43353 16.7555 2.92228C17.03 3.41362 17.1719 3.90993 17.2446 4.28678C17.2807 4.47417 17.2991 4.6291 17.3085 4.73508C17.3131 4.78798 17.3155 4.82841 17.3167 4.8543C17.3173 4.86725 17.3176 4.87654 17.3178 4.8819L17.3179 4.88537V8.95122C16.7284 8.89676 16.1802 8.69861 15.7593 8.30415C15.2619 7.83806 14.8677 7.0278 14.8677 5.63347C14.8677 5.36322 14.6466 5.14413 14.374 5.14413C14.1013 5.14413 13.8802 5.36322 13.8802 5.63347C13.8802 7.21186 14.3315 8.31307 15.0808 9.01527C15.7262 9.62007 16.5368 9.87623 17.3179 9.9331V9.9519H21.5764C22.702 9.9519 23.6069 9.04644 23.6069 7.93948V4.82943C24.6338 4.60808 25.4029 3.70202 25.4029 2.61794C25.4029 1.36802 24.3805 0.354757 23.1193 0.354757C21.8582 0.354757 20.8358 1.36802 20.8358 2.61794C20.8358 3.69767 21.5987 4.60079 22.6194 4.82672V7.93948C22.6194 8.5085 22.1541 8.97323 21.5764 8.97323H18.3053L18.3052 4.869C18.3051 4.86546 18.305 4.86083 18.3049 4.8552C18.3046 4.84394 18.3041 4.82855 18.3032 4.80933C18.3014 4.77089 18.2981 4.71702 18.2922 4.64984C18.2804 4.51564 18.2578 4.32743 18.2145 4.1031C18.1284 3.65648 17.9583 3.05485 17.6195 2.44824C17.2792 1.83905 16.7664 1.2213 15.9986 0.75766C15.2295 0.293268 14.2317 0 12.9483 0Z" fill="url(#paint0_linear_8748_4023)"/>
<path d="M10.4426 14.7963C10.7153 14.7963 10.9363 15.0154 10.9363 15.2857C10.9363 15.8295 11.1913 16.4829 11.6406 17.0026C12.0869 17.5187 12.6757 17.8486 13.3063 17.8486C13.3329 17.8486 13.3591 17.8507 13.3846 17.8547H20.8825C21.1173 16.8523 22.0241 16.1053 23.107 16.1053C24.1898 16.1053 25.0966 16.8523 25.3314 17.8547H32.3743C32.6091 16.8523 33.5159 16.1053 34.5987 16.1053C35.8599 16.1053 36.8823 17.1186 36.8823 18.3685C36.8823 19.6184 35.8599 20.6317 34.5987 20.6317C33.4983 20.6317 32.5797 19.8603 32.3634 18.8334H25.3423C25.126 19.8603 24.2074 20.6317 23.107 20.6317C22.0066 20.6317 21.088 19.8603 20.8716 18.8334H13.3063V18.8273C13.2713 18.8273 13.2366 18.8266 13.2021 18.8253C13.1876 18.8266 13.1729 18.8273 13.1581 18.8273C12.5276 18.8273 11.9387 19.1572 11.4925 19.6732C11.0432 20.1929 10.7882 20.8464 10.7882 21.3902C10.7882 21.6604 10.5671 21.8795 10.2944 21.8795C10.0218 21.8795 9.8007 21.6604 9.8007 21.3902C9.8007 20.576 10.166 19.7034 10.7427 19.0364C10.9899 18.7505 11.285 18.4924 11.6191 18.2905C11.3454 18.1051 11.1009 17.8823 10.8908 17.6394C10.3141 16.9724 9.94884 16.0998 9.94884 15.2857C9.94884 15.0154 10.1699 14.7963 10.4426 14.7963Z" fill="url(#paint1_linear_8748_4023)"/>
<path fill-rule="evenodd" clip-rule="evenodd" d="M143.151 22.7654C143.882 22.7654 144.482 22.6526 144.952 22.427C145.422 22.2015 145.796 21.8892 146.074 21.4902C146.353 21.0738 146.544 20.588 146.648 20.0328C146.77 19.4776 146.831 18.8703 146.831 18.211C146.831 17.5517 146.77 16.9358 146.648 16.3633C146.544 15.7734 146.353 15.2615 146.074 14.8278C145.796 14.394 145.422 14.0557 144.952 13.8128C144.482 13.5526 143.882 13.4225 143.151 13.4225H140.828V22.7654H143.151ZM143.151 10.7939C144.247 10.7939 145.213 10.9848 146.048 11.3665C146.883 11.7308 147.579 12.2427 148.136 12.902C148.71 13.5613 149.137 14.342 149.415 15.2442C149.694 16.1464 149.833 17.1353 149.833 18.211C149.833 19.2867 149.694 20.2757 149.415 21.1779C149.137 22.08 148.71 22.8608 148.136 23.5201C147.579 24.162 146.883 24.6652 146.048 25.0295C145.213 25.3939 144.247 25.576 143.151 25.576H138.427C138.27 25.576 138.131 25.524 138.009 25.4199C137.887 25.2985 137.826 25.151 137.826 24.9775V11.3925C137.826 11.219 137.887 11.0802 138.009 10.9761C138.131 10.8547 138.27 10.7939 138.427 10.7939H143.151ZM156.04 19.5385V22.7656H162.983C163.157 22.7656 163.296 22.8263 163.401 22.9477C163.505 23.0518 163.557 23.182 163.557 23.3381V25.0037C163.557 25.1599 163.505 25.2987 163.401 25.4201C163.296 25.5242 163.157 25.5763 162.983 25.5763H153.639C153.482 25.5763 153.343 25.5242 153.221 25.4201C153.099 25.2987 153.038 25.1512 153.038 24.9777V11.3927C153.038 11.2192 153.099 11.0804 153.221 10.9763C153.343 10.8549 153.482 10.7941 153.639 10.7941H162.983C163.157 10.7941 163.296 10.8549 163.401 10.9763C163.505 11.0804 163.557 11.2105 163.557 11.3667V13.0323C163.557 13.1884 163.505 13.3272 163.401 13.4487C163.296 13.5528 163.157 13.6048 162.983 13.6048H156.04V16.8579H160.999C161.173 16.8579 161.313 16.9187 161.417 17.0401C161.521 17.1442 161.574 17.2743 161.574 17.4305V18.9659C161.574 19.1221 161.521 19.2609 161.417 19.3823C161.313 19.4864 161.173 19.5385 160.999 19.5385H156.04ZM167.14 10.7941H169.262C169.406 10.7941 169.538 10.8761 169.601 11.005L170.641 13.1364C170.785 13.4306 170.785 13.7737 170.642 14.0681L169.752 15.8975C169.616 16.1779 169.214 16.1797 169.075 15.9006L166.802 11.3328C166.678 11.0846 166.86 10.7941 167.14 10.7941ZM176.609 25.5487H174.487C174.34 25.5487 174.206 25.4639 174.145 25.3314L172.066 20.8568C172.054 20.8309 172.045 20.804 172.039 20.7766L169.714 25.3703C169.65 25.4965 169.519 25.5763 169.377 25.5763H167.185C166.905 25.5763 166.722 25.284 166.848 25.0357L173.933 11.0005C173.997 10.874 174.128 10.7941 174.27 10.7941H176.482C176.763 10.7941 176.945 11.0867 176.819 11.3351L173.481 17.9298L176.948 25.0122C177.069 25.2603 176.887 25.5487 176.609 25.5487Z" fill="url(#paint2_linear_8748_4023)"/>
<path fill-rule="evenodd" clip-rule="evenodd" d="M56.9358 10.7823L56.953 10.6916C56.6312 10.6544 56.3071 10.6357 55.9807 10.6357C54.923 10.6357 53.9279 10.8289 52.9954 11.2151C52.0629 11.5875 51.2418 12.1116 50.532 12.7875C49.8361 13.4496 49.2864 14.2358 48.8828 15.1462C48.4791 16.0566 48.2773 17.0428 48.2773 18.1049C48.2773 19.167 48.4791 20.1532 48.8828 21.0636C49.3003 21.9739 49.857 22.7671 50.5529 23.4429C51.2626 24.105 52.0838 24.6292 53.0163 25.0154C53.9626 25.3878 54.9647 25.574 56.0224 25.574C57.0941 25.574 58.0753 25.3809 58.966 24.9947C59.8706 24.6085 60.643 24.0843 61.2833 23.4223C61.9374 22.7464 62.4454 21.9602 62.8072 21.0636C63.1691 20.1532 63.35 19.1739 63.35 18.1256C63.35 17.8773 63.2595 17.6635 63.0786 17.4842C62.8977 17.3049 62.682 17.2152 62.4314 17.2152H59.8365V17.2145H58.1016C57.5559 17.2145 57.1135 17.6569 57.1135 18.2026V18.8261C57.1135 19.3718 57.5559 19.8142 58.1016 19.8142H59.8365V19.8015H60.1142C60.0168 20.2843 59.8358 20.7118 59.5714 21.0843C59.3209 21.4567 59.0147 21.7739 58.6528 22.036C58.291 22.2981 57.8874 22.4981 57.442 22.636C57.0106 22.7602 56.5513 22.8222 56.0642 22.8222C55.3822 22.8222 54.7559 22.6981 54.1853 22.4498C53.6147 22.2015 53.1206 21.8705 52.7031 21.4567C52.2856 21.0291 51.9585 20.5325 51.7219 19.967C51.4992 19.3877 51.3879 18.767 51.3879 18.1049C51.3879 17.4428 51.4992 16.829 51.7219 16.2635C51.9446 15.6841 52.2578 15.1876 52.6614 14.7738C53.065 14.3462 53.5451 14.0082 54.1018 13.76C54.6724 13.5117 55.2987 13.3875 55.9807 13.3875C56.1389 13.3875 56.2915 13.3937 56.4385 13.4061L56.4502 13.3445C56.8422 13.2653 57.1639 12.9519 57.2328 12.5347L57.3605 11.7622C57.4256 11.3682 57.2473 10.9907 56.9358 10.7823ZM76.3982 22.8449C76.2927 22.7229 76.1521 22.6619 75.9762 22.6619H68.9599V19.4203H73.9715C74.1474 19.4203 74.2881 19.3681 74.3936 19.2635C74.4991 19.1415 74.5518 19.0021 74.5518 18.8452V17.3028C74.5518 17.146 74.4991 17.0153 74.3936 16.9107C74.2881 16.7887 74.1474 16.7277 73.9715 16.7277H68.9599V13.46H75.9762C76.1521 13.46 76.2927 13.4077 76.3982 13.3031C76.5037 13.1811 76.5565 13.0417 76.5565 12.8849V11.2118C76.5565 11.0549 76.5037 10.9242 76.3982 10.8196C76.2927 10.6976 76.1521 10.6366 75.9762 10.6366H66.5332C66.3749 10.6366 66.2343 10.6976 66.1112 10.8196C65.9881 10.9242 65.9265 11.0636 65.9265 11.2379V24.884C65.9265 25.0583 65.9881 25.2064 66.1112 25.3284C66.2343 25.433 66.3749 25.4853 66.5332 25.4853H75.9762C76.1521 25.4853 76.2927 25.433 76.3982 25.3284C76.5037 25.2064 76.5565 25.067 76.5565 24.9101V23.2371C76.5565 23.0802 76.5037 22.9495 76.3982 22.8449ZM91.1866 25.4171C91.3033 25.2944 91.3616 25.1453 91.3616 24.97V11.2415C91.3616 11.0662 91.3033 10.9259 91.1866 10.8207C91.0699 10.698 90.9365 10.6366 90.7864 10.6366H89.0607C88.9107 10.6366 88.7773 10.698 88.6606 10.8207C88.5439 10.9259 88.4855 11.0662 88.4855 11.2415V20.0783L83.0584 11.0574C83.0083 10.9522 82.9333 10.8558 82.8333 10.7681C82.7499 10.6805 82.6415 10.6366 82.5081 10.6366H80.6324C80.4823 10.6366 80.349 10.698 80.2322 10.8207C80.1155 10.9259 80.0572 11.0662 80.0572 11.2415V24.97C80.0572 25.1453 80.1155 25.2944 80.2322 25.4171C80.349 25.5223 80.4823 25.5749 80.6324 25.5749H82.3581C82.5081 25.5749 82.6415 25.5223 82.7582 25.4171C82.875 25.2944 82.9333 25.1453 82.9333 24.97V16.107L88.2604 24.97C88.3438 25.1103 88.4688 25.2505 88.6356 25.3908C88.8023 25.5135 88.9607 25.5749 89.1107 25.5749H90.7864C90.9365 25.5749 91.0699 25.5223 91.1866 25.4171ZM98.1635 24.884C98.1635 25.0583 98.1019 25.2064 97.9788 25.3284C97.8557 25.433 97.7151 25.4853 97.5568 25.4853H95.7368C95.5785 25.4853 95.4378 25.433 95.3147 25.3284C95.1917 25.2064 95.1301 25.0583 95.1301 24.884V11.2379C95.1301 11.0636 95.1917 10.9242 95.3147 10.8196C95.4378 10.6976 95.5785 10.6366 95.7368 10.6366H97.5568C97.7151 10.6366 97.8557 10.6976 97.9788 10.8196C98.1019 10.9242 98.1635 11.0636 98.1635 11.2379V24.884ZM103.983 23.7916C104.862 24.9805 106.307 25.5749 108.318 25.5749C110.33 25.5749 111.775 24.9805 112.653 23.7916C113.532 22.6028 113.971 20.9401 113.971 18.8036V11.2311C113.971 11.0588 113.915 10.9209 113.803 10.8176C113.691 10.6969 113.563 10.6366 113.42 10.6366H111.767C111.623 10.6366 111.496 10.6969 111.384 10.8176C111.272 10.9209 111.216 11.0588 111.216 11.2311V18.6227C111.216 19.2946 111.176 19.8977 111.097 20.4318C111.033 20.9659 110.897 21.4225 110.689 21.8016C110.482 22.1634 110.186 22.4477 109.803 22.6544C109.436 22.8612 108.941 22.9646 108.318 22.9646C107.696 22.9646 107.193 22.8612 106.81 22.6544C106.442 22.4477 106.155 22.1634 105.947 21.8016C105.74 21.4225 105.596 20.9659 105.516 20.4318C105.452 19.8977 105.42 19.2946 105.42 18.6227V11.2311C105.42 11.0588 105.365 10.9209 105.253 10.8176C105.141 10.6969 105.013 10.6366 104.87 10.6366H103.217C103.073 10.6366 102.946 10.6969 102.834 10.8176C102.722 10.9209 102.666 11.0588 102.666 11.2311V18.8036C102.666 20.9401 103.105 22.6028 103.983 23.7916ZM119.69 18.1812L122.957 19.7526C123.458 19.9943 123.798 20.2462 123.986 20.498C124.175 20.7498 124.27 21.0923 124.27 21.5154C124.27 22.0593 124.071 22.4824 123.675 22.7745C123.278 23.0666 122.731 23.2177 122.041 23.2177C120.889 23.2177 119.633 22.8047 118.264 21.9787C117.896 21.7571 117.613 21.8377 117.414 22.2305L116.904 23.2278C116.706 23.6105 116.782 23.9127 117.131 24.1343C118.661 25.0913 120.304 25.5748 122.07 25.5748C123.703 25.5748 124.959 25.2222 125.837 24.5171C126.715 23.812 127.159 22.8248 127.159 21.5657C127.159 20.6289 126.961 19.8634 126.564 19.2791C126.168 18.6949 125.497 18.1812 124.553 17.7279L121.72 16.1869C121.229 15.9451 120.87 15.6832 120.653 15.4112C120.436 15.1393 120.323 14.8169 120.323 14.4442C120.323 13.9607 120.493 13.5981 120.833 13.3564C121.173 13.1146 121.635 12.9937 122.211 12.9937C123.222 13.0038 124.629 13.3562 125.799 14.0513C126.168 14.2729 126.451 14.1923 126.649 13.8095L127.159 12.8224C127.358 12.4295 127.282 12.1273 126.923 11.9158C125.478 11.0596 123.703 10.6366 122.24 10.6366C120.748 10.6366 119.567 10.959 118.708 11.6137C117.849 12.2685 117.414 13.1952 117.414 14.3939C117.414 15.9758 118.266 17.4324 119.69 18.1812Z" fill="white"/>
<defs>
<linearGradient id="paint0_linear_8748_4023" x1="0" y1="18.5" x2="36.8823" y2="18.5" gradientUnits="userSpaceOnUse">
<stop stop-color="#59EECA"/>
<stop offset="1" stop-color="#59D3EE"/>
</linearGradient>
<linearGradient id="paint1_linear_8748_4023" x1="0" y1="18.5" x2="36.8823" y2="18.5" gradientUnits="userSpaceOnUse">
<stop stop-color="#59EECA"/>
<stop offset="1" stop-color="#59D3EE"/>
</linearGradient>
<linearGradient id="paint2_linear_8748_4023" x1="137.283" y1="20.0906" x2="175.296" y2="19.8946" gradientUnits="userSpaceOnUse">
<stop stop-color="#59EECA"/>
<stop offset="1" stop-color="#59D3EE"/>
</linearGradient>
</defs>
</svg>
